<svg width="60" height="60" viewBox="0 0 60 60" fill="none" xmlns="http://www.w3.org/2000/svg">
<path d="M30.5 46.5L20 51C18.3333 51.7083 16.75 51.5729 15.25 50.5938C13.75 49.6146 13 48.2292 13 46.4375V14C13 12.625 13.4896 11.4479 14.4688 10.4688C15.4479 9.48958 16.625 9 18 9H43C44.375 9 45.5521 9.48958 46.5312 10.4688C47.5104 11.4479 48 12.625 48 14V46.4375C48 48.2292 47.25 49.6146 45.75 50.5938C44.25 51.5729 42.6667 51.7083 41 51L30.5 46.5ZM30.5 41L43 46.375V14H18V46.375L30.5 41ZM30.5 14H18H43H30.5Z" fill="white"/>
</svg>
