<svg width="60" height="60" viewBox="0 0 60 60" fill="none" xmlns="http://www.w3.org/2000/svg">
<path d="M29.9375 38.375C29.6042 38.375 29.2917 38.3229 29 38.2188C28.7083 38.1146 28.4375 37.9375 28.1875 37.6875L16.6875 26.1875C16.2292 25.7292 16 25.1458 16 24.4375C16 23.7292 16.2292 23.1458 16.6875 22.6875C17.1458 22.2292 17.7292 22 18.4375 22C19.1458 22 19.7292 22.2292 20.1875 22.6875L29.9375 32.4375L39.6875 22.6875C40.1458 22.2292 40.7292 22 41.4375 22C42.1458 22 42.7292 22.2292 43.1875 22.6875C43.6458 23.1458 43.875 23.7292 43.875 24.4375C43.875 25.1458 43.6458 25.7292 43.1875 26.1875L31.6875 37.6875C31.4375 37.9375 31.1667 38.1146 30.875 38.2188C30.5833 38.3229 30.2708 38.375 29.9375 38.375Z" fill="white"/>
</svg>
