<svg width="60" height="60" viewBox="0 0 60 60" fill="none" xmlns="http://www.w3.org/2000/svg">
<path d="M40.375 47.5H12.5C11.7917 47.5 11.1979 47.2604 10.7188 46.7812C10.2396 46.3021 10 45.7083 10 45C10 44.2917 10.2396 43.6979 10.7188 43.2188C11.1979 42.7396 11.7917 42.5 12.5 42.5H15V25C15 23.625 15.1771 22.2708 15.5312 20.9375C15.8854 19.6042 16.4167 18.3333 17.125 17.125L20.875 20.875C20.5833 21.5417 20.3646 22.2188 20.2188 22.9062C20.0729 23.5938 20 24.2917 20 25V42.5H35.5L5.25 12.25C4.79167 11.7917 4.5625 11.2083 4.5625 10.5C4.5625 9.79167 4.79167 9.20833 5.25 8.75C5.70833 8.29167 6.29167 8.0625 7 8.0625C7.70833 8.0625 8.29167 8.29167 8.75 8.75L51.25 51.25C51.7083 51.7083 51.9479 52.2812 51.9688 52.9688C51.9896 53.6562 51.75 54.25 51.25 54.75C50.7917 55.2083 50.2083 55.4375 49.5 55.4375C48.7917 55.4375 48.2083 55.2083 47.75 54.75L40.375 47.5ZM45 37.875L40 32.875V25C40 22.25 39.0208 19.8958 37.0625 17.9375C35.1042 15.9792 32.75 15 30 15C28.9167 15 27.875 15.1667 26.875 15.5C25.875 15.8333 24.9583 16.3333 24.125 17L20.5 13.375C21.3333 12.7083 22.2292 12.125 23.1875 11.625C24.1458 11.125 25.1667 10.75 26.25 10.5V8.75C26.25 7.70833 26.6146 6.82292 27.3438 6.09375C28.0729 5.36458 28.9583 5 30 5C31.0417 5 31.9271 5.36458 32.6562 6.09375C33.3854 6.82292 33.75 7.70833 33.75 8.75V10.5C37.0833 11.3333 39.7917 13.0938 41.875 15.7812C43.9583 18.4688 45 21.5417 45 25V37.875ZM30 55C28.625 55 27.4479 54.5104 26.4688 53.5313C25.4896 52.5521 25 51.375 25 50H35C35 51.375 34.5104 52.5521 33.5312 53.5313C32.5521 54.5104 31.375 55 30 55Z" fill="white"/>
</svg>
