<svg width="60" height="60" viewBox="0 0 60 60" fill="none" xmlns="http://www.w3.org/2000/svg">
<path d="M50.9375 32.375L42.125 44.875C41.6667 45.5417 41.0729 46.0625 40.3438 46.4375C39.6146 46.8125 38.8333 47 38 47H13C11.625 47 10.4479 46.5104 9.46875 45.5312C8.48958 44.5521 8 43.375 8 42V17C8 15.625 8.48958 14.4479 9.46875 13.4688C10.4479 12.4896 11.625 12 13 12H38C38.8333 12 39.6146 12.1875 40.3438 12.5625C41.0729 12.9375 41.6667 13.4583 42.125 14.125L50.9375 26.625C51.5625 27.5 51.875 28.4583 51.875 29.5C51.875 30.5417 51.5625 31.5 50.9375 32.375ZM38 42L46.875 29.5L38 17H13V42H38Z" fill="white"/>
</svg>
