<svg width="60" height="60" viewBox="0 0 60 60" fill="none" xmlns="http://www.w3.org/2000/svg">
<path d="M15 56.5C13.625 56.5 12.4479 56.0104 11.4688 55.0312C10.4896 54.0521 10 52.875 10 51.5V26.5C10 25.125 10.4896 23.9479 11.4688 22.9688C12.4479 21.9896 13.625 21.5 15 21.5H17.5V16.5C17.5 13.0417 18.7188 10.0938 21.1562 7.65625C23.5938 5.21875 26.5417 4 30 4C33.4583 4 36.4062 5.21875 38.8438 7.65625C41.2812 10.0938 42.5 13.0417 42.5 16.5V21.5H45C46.375 21.5 47.5521 21.9896 48.5312 22.9688C49.5104 23.9479 50 25.125 50 26.5V51.5C50 52.875 49.5104 54.0521 48.5312 55.0312C47.5521 56.0104 46.375 56.5 45 56.5H15ZM15 51.5H45V26.5H15V51.5ZM30 44C31.375 44 32.5521 43.5104 33.5312 42.5312C34.5104 41.5521 35 40.375 35 39C35 37.625 34.5104 36.4479 33.5312 35.4688C32.5521 34.4896 31.375 34 30 34C28.625 34 27.4479 34.4896 26.4688 35.4688C25.4896 36.4479 25 37.625 25 39C25 40.375 25.4896 41.5521 26.4688 42.5312C27.4479 43.5104 28.625 44 30 44ZM22.5 21.5H37.5V16.5C37.5 14.4167 36.7708 12.6458 35.3125 11.1875C33.8542 9.72917 32.0833 9 30 9C27.9167 9 26.1458 9.72917 24.6875 11.1875C23.2292 12.6458 22.5 14.4167 22.5 16.5V21.5Z" fill="white"/>
</svg>
