<svg width="60" height="60" viewBox="0 0 60 60" fill="none" xmlns="http://www.w3.org/2000/svg">
<path d="M35 25C35 23.625 34.5104 22.4479 33.5312 21.4688C32.5521 20.4896 31.375 20 30 20C29.5833 20 29.1875 20.0417 28.8125 20.125C28.4375 20.2083 28.0833 20.3542 27.75 20.5625L34.4375 27.25C34.6458 26.9167 34.7917 26.5625 34.875 26.1875C34.9583 25.8125 35 25.4167 35 25ZM45.5 38.3125L41.875 34.6875C42.9167 32.9375 43.6979 31.3021 44.2188 29.7812C44.7396 28.2604 45 26.8333 45 25.5C45 20.9583 43.5521 17.2396 40.6562 14.3438C37.7604 11.4479 34.2083 10 30 10C28.1667 10 26.4479 10.2812 24.8438 10.8438C23.2396 11.4062 21.7917 12.2292 20.5 13.3125L16.9375 9.75C18.7292 8.20833 20.75 7.03125 23 6.21875C25.25 5.40625 27.5833 5 30 5C35.2917 5 39.9479 6.85417 43.9688 10.5625C47.9896 14.2708 50 19.25 50 25.5C50 27.5 49.625 29.5521 48.875 31.6562C48.125 33.7604 47 35.9792 45.5 38.3125ZM35.6875 42.75L15.25 22.3125C15.1667 22.8125 15.1042 23.3333 15.0625 23.875C15.0208 24.4167 15 24.9583 15 25.5C15 28.4583 16.2292 31.8438 18.6875 35.6562C21.1458 39.4688 24.9167 43.7083 30 48.375C31.0833 47.4167 32.0938 46.4688 33.0312 45.5312C33.9688 44.5938 34.8542 43.6667 35.6875 42.75ZM30 53.3125C29.4167 53.3125 28.8333 53.2083 28.25 53C27.6667 52.7917 27.1458 52.4792 26.6875 52.0625C23.9792 49.5625 21.5833 47.125 19.5 44.75C17.4167 42.375 15.6771 40.0729 14.2812 37.8438C12.8854 35.6146 11.8229 33.4688 11.0938 31.4062C10.3646 29.3438 10 27.375 10 25.5C10 24.1667 10.1042 22.8958 10.3125 21.6875C10.5208 20.4792 10.8125 19.3333 11.1875 18.25L3.4375 10.5C2.9375 10 2.6875 9.40625 2.6875 8.71875C2.6875 8.03125 2.9375 7.4375 3.4375 6.9375C3.9375 6.4375 4.53125 6.1875 5.21875 6.1875C5.90625 6.1875 6.5 6.4375 7 6.9375L53 52.9375C53.5 53.4375 53.7396 54.0208 53.7188 54.6875C53.6979 55.3542 53.4375 55.9375 52.9375 56.4375C52.4375 56.9375 51.8438 57.1875 51.1562 57.1875C50.4688 57.1875 49.875 56.9375 49.375 56.4375L39.1875 46.25C38.4792 47 37.6875 47.8125 36.8125 48.6875C35.9375 49.5625 34.7708 50.6875 33.3125 52.0625C32.8542 52.4792 32.3333 52.7917 31.75 53C31.1667 53.2083 30.5833 53.3125 30 53.3125Z" fill="white"/>
</svg>
