<svg width="60" height="60" viewBox="0 0 60 60" fill="none" xmlns="http://www.w3.org/2000/svg">
<path d="M49.375 52C44.1667 52 39.0208 50.8646 33.9375 48.5938C28.8542 46.3229 24.2292 43.1042 20.0625 38.9375C15.8958 34.7708 12.6771 30.1458 10.4062 25.0625C8.13542 19.9792 7 14.8333 7 9.625C7 8.875 7.25 8.25 7.75 7.75C8.25 7.25 8.875 7 9.625 7H19.75C20.3333 7 20.8542 7.19792 21.3125 7.59375C21.7708 7.98958 22.0417 8.45833 22.125 9L23.75 17.75C23.8333 18.4167 23.8125 18.9792 23.6875 19.4375C23.5625 19.8958 23.3333 20.2917 23 20.625L16.9375 26.75C17.7708 28.2917 18.7604 29.7812 19.9062 31.2188C21.0521 32.6562 22.3125 34.0417 23.6875 35.375C24.9792 36.6667 26.3333 37.8646 27.75 38.9688C29.1667 40.0729 30.6667 41.0833 32.25 42L38.125 36.125C38.5 35.75 38.9896 35.4688 39.5938 35.2812C40.1979 35.0938 40.7917 35.0417 41.375 35.125L50 36.875C50.5833 37.0417 51.0625 37.3438 51.4375 37.7812C51.8125 38.2188 52 38.7083 52 39.25V49.375C52 50.125 51.75 50.75 51.25 51.25C50.75 51.75 50.125 52 49.375 52ZM14.5625 22L18.6875 17.875L17.625 12H12.0625C12.2708 13.7083 12.5625 15.3958 12.9375 17.0625C13.3125 18.7292 13.8542 20.375 14.5625 22ZM36.9375 44.375C38.5625 45.0833 40.2188 45.6458 41.9062 46.0625C43.5938 46.4792 45.2917 46.75 47 46.875V41.375L41.125 40.1875L36.9375 44.375Z" fill="white"/>
</svg>
