<svg width="60" height="60" viewBox="0 0 60 60" fill="none" xmlns="http://www.w3.org/2000/svg">
<path d="M21.75 53.25C25.5417 53.25 28.7812 51.9062 31.4688 49.2188C34.1562 46.5312 35.5 43.2917 35.5 39.5C35.5 38.2083 35.3229 36.9375 34.9688 35.6875C34.6146 34.4375 34.0833 33.25 33.375 32.125L31.75 29.5625L34.375 25.0625L27.875 21.3125L25.25 25.8125H22.5C18.5833 25.8125 15.1771 27.0625 12.2812 29.5625C9.38542 32.0625 7.9375 35.3333 7.9375 39.375C7.9375 43.2083 9.28125 46.4792 11.9688 49.1875C14.6562 51.8958 17.9167 53.25 21.75 53.25ZM52.625 23.25C51.9167 23.25 51.3229 23.0104 50.8438 22.5312C50.3646 22.0521 50.125 21.4583 50.125 20.75C50.125 20.0417 50.3646 19.4479 50.8438 18.9688C51.3229 18.4896 51.9167 18.25 52.625 18.25H55.125C55.8333 18.25 56.4271 18.4896 56.9062 18.9688C57.3854 19.4479 57.625 20.0417 57.625 20.75C57.625 21.4583 57.3854 22.0521 56.9062 22.5312C56.4271 23.0104 55.8333 23.25 55.125 23.25H52.625ZM38.875 9.5C38.1667 9.5 37.5729 9.26042 37.0938 8.78125C36.6146 8.30208 36.375 7.70833 36.375 7V4.5C36.375 3.79167 36.6146 3.19792 37.0938 2.71875C37.5729 2.23958 38.1667 2 38.875 2C39.5833 2 40.1771 2.23958 40.6562 2.71875C41.1354 3.19792 41.375 3.79167 41.375 4.5V7C41.375 7.70833 41.1354 8.30208 40.6562 8.78125C40.1771 9.26042 39.5833 9.5 38.875 9.5ZM46.8125 12.8125C46.3542 12.3542 46.125 11.7708 46.125 11.0625C46.125 10.3542 46.3542 9.77083 46.8125 9.3125L48.625 7.5C49.0833 7.04167 49.6667 6.8125 50.375 6.8125C51.0833 6.8125 51.6667 7.04167 52.125 7.5C52.5833 7.95833 52.8125 8.54167 52.8125 9.25C52.8125 9.95833 52.5833 10.5417 52.125 11L50.3125 12.8125C49.8542 13.2708 49.2708 13.5 48.5625 13.5C47.8542 13.5 47.2708 13.2708 46.8125 12.8125ZM42.625 20.125C42.4167 20.125 42.2083 20.1042 42 20.0625C41.7917 20.0208 41.5833 19.9375 41.375 19.8125L39.1875 18.5625C38.6042 18.2292 37.9688 18.1562 37.2812 18.3438C36.5938 18.5312 36.0833 18.9167 35.75 19.5L35.4375 20L37.9375 21.4375C38.8125 21.9375 39.3854 22.6875 39.6562 23.6875C39.9271 24.6875 39.8125 25.625 39.3125 26.5L37.625 29.5C38.5833 31 39.3021 32.5938 39.7812 34.2812C40.2604 35.9688 40.5 37.7083 40.5 39.5C40.5 44.7083 38.6771 49.1354 35.0312 52.7812C31.3854 56.4271 26.9583 58.25 21.75 58.25C16.5417 58.25 12.1146 56.4062 8.46875 52.7188C4.82292 49.0312 3 44.5833 3 39.375C3 34.1667 4.80208 29.7604 8.40625 26.1562C12.0104 22.5521 16.4167 20.75 21.625 20.75H22.4375L24.125 17.8125C24.625 16.8958 25.375 16.3021 26.375 16.0312C27.375 15.7604 28.3333 15.8958 29.25 16.4375L31.125 17.5L31.4375 17C32.3958 15.2083 33.8958 14.0417 35.9375 13.5C37.9792 12.9583 39.8958 13.2083 41.6875 14.25L43.8125 15.4375C44.1875 15.6458 44.5 15.9479 44.75 16.3438C45 16.7396 45.125 17.1667 45.125 17.625C45.125 18.3333 44.8854 18.9271 44.4062 19.4062C43.9271 19.8854 43.3333 20.125 42.625 20.125Z" fill="white"/>
</svg>
