<svg width="60" height="60" viewBox="0 0 60 60" fill="none" xmlns="http://www.w3.org/2000/svg">
<path d="M9.5 45C8.79167 45 8.19792 44.7604 7.71875 44.2812C7.23958 43.8021 7 43.2083 7 42.5C7 41.7917 7.23958 41.1979 7.71875 40.7188C8.19792 40.2396 8.79167 40 9.5 40H49.5C50.2083 40 50.8021 40.2396 51.2812 40.7188C51.7604 41.1979 52 41.7917 52 42.5C52 43.2083 51.7604 43.8021 51.2812 44.2812C50.8021 44.7604 50.2083 45 49.5 45H9.5ZM9.5 32.5C8.79167 32.5 8.19792 32.2604 7.71875 31.7812C7.23958 31.3021 7 30.7083 7 30C7 29.2917 7.23958 28.6979 7.71875 28.2188C8.19792 27.7396 8.79167 27.5 9.5 27.5H49.5C50.2083 27.5 50.8021 27.7396 51.2812 28.2188C51.7604 28.6979 52 29.2917 52 30C52 30.7083 51.7604 31.3021 51.2812 31.7812C50.8021 32.2604 50.2083 32.5 49.5 32.5H9.5ZM9.5 20C8.79167 20 8.19792 19.7604 7.71875 19.2812C7.23958 18.8021 7 18.2083 7 17.5C7 16.7917 7.23958 16.1979 7.71875 15.7188C8.19792 15.2396 8.79167 15 9.5 15H49.5C50.2083 15 50.8021 15.2396 51.2812 15.7188C51.7604 16.1979 52 16.7917 52 17.5C52 18.2083 51.7604 18.8021 51.2812 19.2812C50.8021 19.7604 50.2083 20 49.5 20H9.5Z" fill="white"/>
</svg>
