<svg width="60" height="60" viewBox="0 0 60 60" fill="none" xmlns="http://www.w3.org/2000/svg">
<path d="M30 52.875L26.375 49.625C22.1667 45.8333 18.6875 42.5625 15.9375 39.8125C13.1875 37.0625 11 34.5938 9.375 32.4062C7.75 30.2188 6.61458 28.2083 5.96875 26.375C5.32292 24.5417 5 22.6667 5 20.75C5 16.8333 6.3125 13.5625 8.9375 10.9375C11.5625 8.3125 14.8333 7 18.75 7C20.9167 7 22.9792 7.45833 24.9375 8.375C26.8958 9.29167 28.5833 10.5833 30 12.25C31.4167 10.5833 33.1042 9.29167 35.0625 8.375C37.0208 7.45833 39.0833 7 41.25 7C45.1667 7 48.4375 8.3125 51.0625 10.9375C53.6875 13.5625 55 16.8333 55 20.75C55 22.6667 54.6771 24.5417 54.0312 26.375C53.3854 28.2083 52.25 30.2188 50.625 32.4062C49 34.5938 46.8125 37.0625 44.0625 39.8125C41.3125 42.5625 37.8333 45.8333 33.625 49.625L30 52.875Z" fill="white"/>
</svg>
