<svg width="60" height="60" viewBox="0 0 60 60" fill="none" xmlns="http://www.w3.org/2000/svg">
<path d="M15 55.5C13.625 55.5 12.4479 55.0104 11.4688 54.0312C10.4896 53.0521 10 51.875 10 50.5V25.5C10 24.125 10.4896 22.9479 11.4688 21.9688C12.4479 20.9896 13.625 20.5 15 20.5H37.5V15.5C37.5 13.4167 36.7708 11.6458 35.3125 10.1875C33.8542 8.72917 32.0833 8 30 8C28.25 8 26.7188 8.53125 25.4062 9.59375C24.0938 10.6562 23.2083 11.9792 22.75 13.5625C22.5833 14.1458 22.2396 14.6146 21.7188 14.9688C21.1979 15.3229 20.625 15.5 20 15.5C19.2917 15.5 18.6979 15.2708 18.2188 14.8125C17.7396 14.3542 17.5625 13.8125 17.6875 13.1875C18.2708 10.3125 19.7083 7.89583 22 5.9375C24.2917 3.97917 26.9583 3 30 3C33.4583 3 36.4062 4.21875 38.8438 6.65625C41.2812 9.09375 42.5 12.0417 42.5 15.5V20.5H45C46.375 20.5 47.5521 20.9896 48.5312 21.9688C49.5104 22.9479 50 24.125 50 25.5V50.5C50 51.875 49.5104 53.0521 48.5312 54.0312C47.5521 55.0104 46.375 55.5 45 55.5H15ZM15 50.5H45V25.5H15V50.5ZM30 43C31.375 43 32.5521 42.5104 33.5312 41.5312C34.5104 40.5521 35 39.375 35 38C35 36.625 34.5104 35.4479 33.5312 34.4688C32.5521 33.4896 31.375 33 30 33C28.625 33 27.4479 33.4896 26.4688 34.4688C25.4896 35.4479 25 36.625 25 38C25 39.375 25.4896 40.5521 26.4688 41.5312C27.4479 42.5104 28.625 43 30 43Z" fill="white"/>
</svg>
