<svg width="60" height="60" viewBox="0 0 60 60" fill="none" xmlns="http://www.w3.org/2000/svg">
<path d="M30 52.875L26.375 49.625C22.1667 45.8333 18.6875 42.5625 15.9375 39.8125C13.1875 37.0625 11 34.5938 9.375 32.4062C7.75 30.2188 6.61458 28.2083 5.96875 26.375C5.32292 24.5417 5 22.6667 5 20.75C5 16.8333 6.3125 13.5625 8.9375 10.9375C11.5625 8.3125 14.8333 7 18.75 7C20.9167 7 22.9792 7.45833 24.9375 8.375C26.8958 9.29167 28.5833 10.5833 30 12.25C31.4167 10.5833 33.1042 9.29167 35.0625 8.375C37.0208 7.45833 39.0833 7 41.25 7C45.1667 7 48.4375 8.3125 51.0625 10.9375C53.6875 13.5625 55 16.8333 55 20.75C55 22.6667 54.6771 24.5417 54.0312 26.375C53.3854 28.2083 52.25 30.2188 50.625 32.4062C49 34.5938 46.8125 37.0625 44.0625 39.8125C41.3125 42.5625 37.8333 45.8333 33.625 49.625L30 52.875ZM30 46.125C34 42.5417 37.2917 39.4688 39.875 36.9062C42.4583 34.3438 44.5 32.1146 46 30.2188C47.5 28.3229 48.5417 26.6354 49.125 25.1562C49.7083 23.6771 50 22.2083 50 20.75C50 18.25 49.1667 16.1667 47.5 14.5C45.8333 12.8333 43.75 12 41.25 12C39.2917 12 37.4792 12.5521 35.8125 13.6562C34.1458 14.7604 33 16.1667 32.375 17.875H27.625C27 16.1667 25.8542 14.7604 24.1875 13.6562C22.5208 12.5521 20.7083 12 18.75 12C16.25 12 14.1667 12.8333 12.5 14.5C10.8333 16.1667 10 18.25 10 20.75C10 22.2083 10.2917 23.6771 10.875 25.1562C11.4583 26.6354 12.5 28.3229 14 30.2188C15.5 32.1146 17.5417 34.3438 20.125 36.9062C22.7083 39.4688 26 42.5417 30 46.125Z" fill="white"/>
</svg>
