<svg width="60" height="60" viewBox="0 0 60 60" fill="none" xmlns="http://www.w3.org/2000/svg">
<path d="M2 43C2 41.5833 2.36458 40.2812 3.09375 39.0938C3.82292 37.9062 4.79167 37 6 36.375C8.58333 35.0833 11.2083 34.1146 13.875 33.4688C16.5417 32.8229 19.25 32.5 22 32.5C24.75 32.5 27.4583 32.8229 30.125 33.4688C32.7917 34.1146 35.4167 35.0833 38 36.375C39.2083 37 40.1771 37.9062 40.9062 39.0938C41.6354 40.2812 42 41.5833 42 43V45C42 46.375 41.5104 47.5521 40.5312 48.5312C39.5521 49.5104 38.375 50 37 50H7C5.625 50 4.44792 49.5104 3.46875 48.5312C2.48958 47.5521 2 46.375 2 45V43ZM52 50H45.625C46.0833 49.25 46.4271 48.4479 46.6562 47.5938C46.8854 46.7396 47 45.875 47 45V42.5C47 40.6667 46.4896 38.9062 45.4688 37.2188C44.4479 35.5312 43 34.0833 41.125 32.875C43.25 33.125 45.25 33.5521 47.125 34.1562C49 34.7604 50.75 35.5 52.375 36.375C53.875 37.2083 55.0208 38.1354 55.8125 39.1562C56.6042 40.1771 57 41.2917 57 42.5V45C57 46.375 56.5104 47.5521 55.5312 48.5312C54.5521 49.5104 53.375 50 52 50ZM22 30C19.25 30 16.8958 29.0208 14.9375 27.0625C12.9792 25.1042 12 22.75 12 20C12 17.25 12.9792 14.8958 14.9375 12.9375C16.8958 10.9792 19.25 10 22 10C24.75 10 27.1042 10.9792 29.0625 12.9375C31.0208 14.8958 32 17.25 32 20C32 22.75 31.0208 25.1042 29.0625 27.0625C27.1042 29.0208 24.75 30 22 30ZM47 20C47 22.75 46.0208 25.1042 44.0625 27.0625C42.1042 29.0208 39.75 30 37 30C36.5417 30 35.9583 29.9479 35.25 29.8438C34.5417 29.7396 33.9583 29.625 33.5 29.5C34.625 28.1667 35.4896 26.6875 36.0938 25.0625C36.6979 23.4375 37 21.75 37 20C37 18.25 36.6979 16.5625 36.0938 14.9375C35.4896 13.3125 34.625 11.8333 33.5 10.5C34.0833 10.2917 34.6667 10.1562 35.25 10.0938C35.8333 10.0312 36.4167 10 37 10C39.75 10 42.1042 10.9792 44.0625 12.9375C46.0208 14.8958 47 17.25 47 20ZM7 45H37V43C37 42.5417 36.8854 42.125 36.6562 41.75C36.4271 41.375 36.125 41.0833 35.75 40.875C33.5 39.75 31.2292 38.9062 28.9375 38.3438C26.6458 37.7812 24.3333 37.5 22 37.5C19.6667 37.5 17.3542 37.7812 15.0625 38.3438C12.7708 38.9062 10.5 39.75 8.25 40.875C7.875 41.0833 7.57292 41.375 7.34375 41.75C7.11458 42.125 7 42.5417 7 43V45ZM22 25C23.375 25 24.5521 24.5104 25.5312 23.5312C26.5104 22.5521 27 21.375 27 20C27 18.625 26.5104 17.4479 25.5312 16.4688C24.5521 15.4896 23.375 15 22 15C20.625 15 19.4479 15.4896 18.4688 16.4688C17.4896 17.4479 17 18.625 17 20C17 21.375 17.4896 22.5521 18.4688 23.5312C19.4479 24.5104 20.625 25 22 25Z" fill="white"/>
</svg>
