<svg width="60" height="60" viewBox="0 0 60 60" fill="none" xmlns="http://www.w3.org/2000/svg">
<path d="M35.75 45C34 45 32.5208 44.3958 31.3125 43.1875C30.1042 41.9792 29.5 40.5 29.5 38.75C29.5 37 30.1042 35.5208 31.3125 34.3125C32.5208 33.1042 34 32.5 35.75 32.5C37.5 32.5 38.9792 33.1042 40.1875 34.3125C41.3958 35.5208 42 37 42 38.75C42 40.5 41.3958 41.9792 40.1875 43.1875C38.9792 44.3958 37.5 45 35.75 45ZM12 55C10.625 55 9.44792 54.5104 8.46875 53.5312C7.48958 52.5521 7 51.375 7 50V15C7 13.625 7.48958 12.4479 8.46875 11.4688C9.44792 10.4896 10.625 10 12 10H14.5V7.5C14.5 6.79167 14.7396 6.19792 15.2188 5.71875C15.6979 5.23958 16.2917 5 17 5C17.7083 5 18.3021 5.23958 18.7812 5.71875C19.2604 6.19792 19.5 6.79167 19.5 7.5V10H39.5V7.5C39.5 6.79167 39.7396 6.19792 40.2188 5.71875C40.6979 5.23958 41.2917 5 42 5C42.7083 5 43.3021 5.23958 43.7812 5.71875C44.2604 6.19792 44.5 6.79167 44.5 7.5V10H47C48.375 10 49.5521 10.4896 50.5312 11.4688C51.5104 12.4479 52 13.625 52 15V50C52 51.375 51.5104 52.5521 50.5312 53.5312C49.5521 54.5104 48.375 55 47 55H12ZM12 50H47V25H12V50ZM12 20H47V15H12V20Z" fill="white"/>
</svg>
