<svg width="60" height="60" viewBox="0 0 60 60" fill="none" xmlns="http://www.w3.org/2000/svg">
<path d="M24.25 40.5C19.7083 40.5 15.8646 38.9271 12.7188 35.7812C9.57292 32.6354 8 28.7917 8 24.25C8 19.7083 9.57292 15.8646 12.7188 12.7188C15.8646 9.57292 19.7083 8 24.25 8C28.7917 8 32.6354 9.57292 35.7812 12.7188C38.9271 15.8646 40.5 19.7083 40.5 24.25C40.5 26.0833 40.2083 27.8125 39.625 29.4375C39.0417 31.0625 38.25 32.5 37.25 33.75L51.25 47.75C51.7083 48.2083 51.9375 48.7917 51.9375 49.5C51.9375 50.2083 51.7083 50.7917 51.25 51.25C50.7917 51.7083 50.2083 51.9375 49.5 51.9375C48.7917 51.9375 48.2083 51.7083 47.75 51.25L33.75 37.25C32.5 38.25 31.0625 39.0417 29.4375 39.625C27.8125 40.2083 26.0833 40.5 24.25 40.5ZM24.25 35.5C27.375 35.5 30.0312 34.4062 32.2188 32.2188C34.4062 30.0312 35.5 27.375 35.5 24.25C35.5 21.125 34.4062 18.4688 32.2188 16.2812C30.0312 14.0938 27.375 13 24.25 13C21.125 13 18.4688 14.0938 16.2812 16.2812C14.0938 18.4688 13 21.125 13 24.25C13 27.375 14.0938 30.0312 16.2812 32.2188C18.4688 34.4062 21.125 35.5 24.25 35.5Z" fill="white"/>
</svg>
