<svg width="60" height="60" viewBox="0 0 60 60" fill="none" xmlns="http://www.w3.org/2000/svg">
<path d="M19.5 32.4375L31.75 44.6875C32.25 45.1875 32.4896 45.7708 32.4688 46.4375C32.4479 47.1042 32.1875 47.6875 31.6875 48.1875C31.1875 48.6458 30.6042 48.8854 29.9375 48.9062C29.2708 48.9271 28.6875 48.6875 28.1875 48.1875L11.6875 31.6875C11.4375 31.4375 11.2604 31.1667 11.1562 30.875C11.0521 30.5833 11 30.2708 11 29.9375C11 29.6042 11.0521 29.2917 11.1562 29C11.2604 28.7083 11.4375 28.4375 11.6875 28.1875L28.1875 11.6875C28.6458 11.2292 29.2188 11 29.9062 11C30.5938 11 31.1875 11.2292 31.6875 11.6875C32.1875 12.1875 32.4375 12.7812 32.4375 13.4688C32.4375 14.1562 32.1875 14.75 31.6875 15.25L19.5 27.4375H47.4375C48.1458 27.4375 48.7396 27.6771 49.2188 28.1562C49.6979 28.6354 49.9375 29.2292 49.9375 29.9375C49.9375 30.6458 49.6979 31.2396 49.2188 31.7188C48.7396 32.1979 48.1458 32.4375 47.4375 32.4375H19.5Z" fill="white"/>
</svg>
