<svg width="60" height="60" viewBox="0 0 60 60" fill="none" xmlns="http://www.w3.org/2000/svg">
<path d="M22 34.5V24.5C22 23.7917 22.2396 23.1979 22.7188 22.7188C23.1979 22.2396 23.7917 22 24.5 22H34.5C35.2083 22 35.8021 22.2396 36.2812 22.7188C36.7604 23.1979 37 23.7917 37 24.5V34.5C37 35.2083 36.7604 35.8021 36.2812 36.2812C35.8021 36.7604 35.2083 37 34.5 37H24.5C23.7917 37 23.1979 36.7604 22.7188 36.2812C22.2396 35.8021 22 35.2083 22 34.5ZM27 32H32V27H27V32ZM22 49.5V47H17C15.625 47 14.4479 46.5104 13.4688 45.5312C12.4896 44.5521 12 43.375 12 42V37H9.5C8.79167 37 8.19792 36.7604 7.71875 36.2812C7.23958 35.8021 7 35.2083 7 34.5C7 33.7917 7.23958 33.1979 7.71875 32.7188C8.19792 32.2396 8.79167 32 9.5 32H12V27H9.5C8.79167 27 8.19792 26.7604 7.71875 26.2812C7.23958 25.8021 7 25.2083 7 24.5C7 23.7917 7.23958 23.1979 7.71875 22.7188C8.19792 22.2396 8.79167 22 9.5 22H12V17C12 15.625 12.4896 14.4479 13.4688 13.4688C14.4479 12.4896 15.625 12 17 12H22V9.5C22 8.79167 22.2396 8.19792 22.7188 7.71875C23.1979 7.23958 23.7917 7 24.5 7C25.2083 7 25.8021 7.23958 26.2812 7.71875C26.7604 8.19792 27 8.79167 27 9.5V12H32V9.5C32 8.79167 32.2396 8.19792 32.7188 7.71875C33.1979 7.23958 33.7917 7 34.5 7C35.2083 7 35.8021 7.23958 36.2812 7.71875C36.7604 8.19792 37 8.79167 37 9.5V12H42C43.375 12 44.5521 12.4896 45.5312 13.4688C46.5104 14.4479 47 15.625 47 17V22H49.5C50.2083 22 50.8021 22.2396 51.2812 22.7188C51.7604 23.1979 52 23.7917 52 24.5C52 25.2083 51.7604 25.8021 51.2812 26.2812C50.8021 26.7604 50.2083 27 49.5 27H47V32H49.5C50.2083 32 50.8021 32.2396 51.2812 32.7188C51.7604 33.1979 52 33.7917 52 34.5C52 35.2083 51.7604 35.8021 51.2812 36.2812C50.8021 36.7604 50.2083 37 49.5 37H47V42C47 43.375 46.5104 44.5521 45.5312 45.5312C44.5521 46.5104 43.375 47 42 47H37V49.5C37 50.2083 36.7604 50.8021 36.2812 51.2812C35.8021 51.7604 35.2083 52 34.5 52C33.7917 52 33.1979 51.7604 32.7188 51.2812C32.2396 50.8021 32 50.2083 32 49.5V47H27V49.5C27 50.2083 26.7604 50.8021 26.2812 51.2812C25.8021 51.7604 25.2083 52 24.5 52C23.7917 52 23.1979 51.7604 22.7188 51.2812C22.2396 50.8021 22 50.2083 22 49.5ZM42 42V17H17V42H42Z" fill="white"/>
</svg>
