<svg width="60" height="60" viewBox="0 0 60 60" fill="none" xmlns="http://www.w3.org/2000/svg">
<path d="M13 52C11.625 52 10.4479 51.5104 9.46875 50.5312C8.48958 49.5521 8 48.375 8 47V12C8 10.625 8.48958 9.44792 9.46875 8.46875C10.4479 7.48958 11.625 7 13 7H28C28.7083 7 29.3021 7.23958 29.7812 7.71875C30.2604 8.19792 30.5 8.79167 30.5 9.5C30.5 10.2083 30.2604 10.8021 29.7812 11.2812C29.3021 11.7604 28.7083 12 28 12H13V47H28C28.7083 47 29.3021 47.2396 29.7812 47.7188C30.2604 48.1979 30.5 48.7917 30.5 49.5C30.5 50.2083 30.2604 50.8021 29.7812 51.2812C29.3021 51.7604 28.7083 52 28 52H13ZM43.4375 32H25.5C24.7917 32 24.1979 31.7604 23.7188 31.2812C23.2396 30.8021 23 30.2083 23 29.5C23 28.7917 23.2396 28.1979 23.7188 27.7188C24.1979 27.2396 24.7917 27 25.5 27H43.4375L38.75 22.3125C38.2917 21.8542 38.0625 21.2917 38.0625 20.625C38.0625 19.9583 38.2917 19.375 38.75 18.875C39.2083 18.375 39.7917 18.1146 40.5 18.0938C41.2083 18.0729 41.8125 18.3125 42.3125 18.8125L51.25 27.75C51.75 28.25 52 28.8333 52 29.5C52 30.1667 51.75 30.75 51.25 31.25L42.3125 40.1875C41.8125 40.6875 41.2188 40.9271 40.5312 40.9062C39.8438 40.8854 39.25 40.625 38.75 40.125C38.2917 39.625 38.0729 39.0312 38.0938 38.3438C38.1146 37.6562 38.3542 37.0833 38.8125 36.625L43.4375 32Z" fill="white"/>
</svg>
