<svg width="60" height="60" viewBox="0 0 60 60" fill="none" xmlns="http://www.w3.org/2000/svg">
<path d="M52.3958 26.1906C54.075 28.0948 55 30.5406 55 33.0802V43.4969C55 49.2406 50.3271 53.9135 44.5833 53.9135H15.4167C9.67292 53.9135 5 49.2406 5 43.4969V33.0802C5 27.3365 9.67292 22.6635 15.4167 22.6635H23.75C24.9021 22.6635 25.8333 23.5969 25.8333 24.7469C25.8333 25.8969 24.9021 26.8302 23.75 26.8302H15.4167C11.9708 26.8302 9.16667 29.6344 9.16667 33.0802V43.4969C9.16667 46.9427 11.9708 49.7469 15.4167 49.7469H44.5833C48.0292 49.7469 50.8333 46.9427 50.8333 43.4969V33.0802C50.8333 31.5573 50.2771 30.0885 49.2708 28.9469C48.5104 28.0844 48.5917 26.7677 49.4562 26.0052C50.3167 25.2469 51.6333 25.3281 52.3958 26.1906ZM15.4167 38.2885C15.4167 40.0135 16.8167 41.4135 18.5417 41.4135C20.2667 41.4135 21.6667 40.0135 21.6667 38.2885C21.6667 36.5635 20.2667 35.1635 18.5417 35.1635C16.8167 35.1635 15.4167 36.5635 15.4167 38.2885ZM28.9583 41.4135C30.6833 41.4135 32.0833 40.0135 32.0833 38.2885C32.0833 36.5635 30.6833 35.1635 28.9583 35.1635C27.2333 35.1635 25.8333 36.5635 25.8333 38.2885C25.8333 40.0135 27.2333 41.4135 28.9583 41.4135ZM30 28.9135V25.6094C30 23.3844 30.8667 21.2906 32.4417 19.7177L44.3312 7.82812C46.7687 5.39062 50.7312 5.39062 53.1687 7.82812C54.3479 9.00729 55 10.5781 55 12.2469C55 13.9156 54.3479 15.4865 53.1687 16.6677L41.2792 28.5573C39.7062 30.1302 37.6125 30.999 35.3875 30.999H32.0833C30.9312 30.999 30 30.0656 30 28.9156V28.9135ZM34.1667 26.8302H35.3875C36.5 26.8302 37.5458 26.3969 38.3333 25.6094L50.2229 13.7198C50.6167 13.326 50.8333 12.8031 50.8333 12.2469C50.8333 11.6906 50.6167 11.1677 50.2229 10.774C49.4083 9.95937 48.0917 9.96146 47.2771 10.774L35.3875 22.6635C34.6125 23.4406 34.1667 24.5135 34.1667 25.6094V26.8302Z" fill="white"/>
</svg>
