<svg width="60" height="60" viewBox="0 0 60 60" fill="none" xmlns="http://www.w3.org/2000/svg">
<path d="M12 55C10.625 55 9.44792 54.5104 8.46875 53.5312C7.48958 52.5521 7 51.375 7 50V15C7 13.625 7.48958 12.4479 8.46875 11.4688C9.44792 10.4896 10.625 10 12 10H14.5V7.5C14.5 6.79167 14.7396 6.19792 15.2188 5.71875C15.6979 5.23958 16.2917 5 17 5C17.7083 5 18.3021 5.23958 18.7812 5.71875C19.2604 6.19792 19.5 6.79167 19.5 7.5V10H39.5V7.5C39.5 6.79167 39.7396 6.19792 40.2188 5.71875C40.6979 5.23958 41.2917 5 42 5C42.7083 5 43.3021 5.23958 43.7812 5.71875C44.2604 6.19792 44.5 6.79167 44.5 7.5V10H47C48.375 10 49.5521 10.4896 50.5312 11.4688C51.5104 12.4479 52 13.625 52 15V50C52 51.375 51.5104 52.5521 50.5312 53.5312C49.5521 54.5104 48.375 55 47 55H12ZM12 50H47V25H12V50ZM12 20H47V15H12V20ZM29.5 35C28.7917 35 28.1979 34.7604 27.7188 34.2812C27.2396 33.8021 27 33.2083 27 32.5C27 31.7917 27.2396 31.1979 27.7188 30.7188C28.1979 30.2396 28.7917 30 29.5 30C30.2083 30 30.8021 30.2396 31.2812 30.7188C31.7604 31.1979 32 31.7917 32 32.5C32 33.2083 31.7604 33.8021 31.2812 34.2812C30.8021 34.7604 30.2083 35 29.5 35ZM19.5 35C18.7917 35 18.1979 34.7604 17.7188 34.2812C17.2396 33.8021 17 33.2083 17 32.5C17 31.7917 17.2396 31.1979 17.7188 30.7188C18.1979 30.2396 18.7917 30 19.5 30C20.2083 30 20.8021 30.2396 21.2812 30.7188C21.7604 31.1979 22 31.7917 22 32.5C22 33.2083 21.7604 33.8021 21.2812 34.2812C20.8021 34.7604 20.2083 35 19.5 35ZM39.5 35C38.7917 35 38.1979 34.7604 37.7188 34.2812C37.2396 33.8021 37 33.2083 37 32.5C37 31.7917 37.2396 31.1979 37.7188 30.7188C38.1979 30.2396 38.7917 30 39.5 30C40.2083 30 40.8021 30.2396 41.2812 30.7188C41.7604 31.1979 42 31.7917 42 32.5C42 33.2083 41.7604 33.8021 41.2812 34.2812C40.8021 34.7604 40.2083 35 39.5 35ZM29.5 45C28.7917 45 28.1979 44.7604 27.7188 44.2812C27.2396 43.8021 27 43.2083 27 42.5C27 41.7917 27.2396 41.1979 27.7188 40.7188C28.1979 40.2396 28.7917 40 29.5 40C30.2083 40 30.8021 40.2396 31.2812 40.7188C31.7604 41.1979 32 41.7917 32 42.5C32 43.2083 31.7604 43.8021 31.2812 44.2812C30.8021 44.7604 30.2083 45 29.5 45ZM19.5 45C18.7917 45 18.1979 44.7604 17.7188 44.2812C17.2396 43.8021 17 43.2083 17 42.5C17 41.7917 17.2396 41.1979 17.7188 40.7188C18.1979 40.2396 18.7917 40 19.5 40C20.2083 40 20.8021 40.2396 21.2812 40.7188C21.7604 41.1979 22 41.7917 22 42.5C22 43.2083 21.7604 43.8021 21.2812 44.2812C20.8021 44.7604 20.2083 45 19.5 45ZM39.5 45C38.7917 45 38.1979 44.7604 37.7188 44.2812C37.2396 43.8021 37 43.2083 37 42.5C37 41.7917 37.2396 41.1979 37.7188 40.7188C38.1979 40.2396 38.7917 40 39.5 40C40.2083 40 40.8021 40.2396 41.2812 40.7188C41.7604 41.1979 42 41.7917 42 42.5C42 43.2083 41.7604 43.8021 41.2812 44.2812C40.8021 44.7604 40.2083 45 39.5 45Z" fill="white"/>
</svg>
