<svg width="60" height="60" viewBox="0 0 60 60" fill="none" xmlns="http://www.w3.org/2000/svg">
<path d="M27 32C27.7083 32 28.3021 31.7604 28.7812 31.2812C29.2604 30.8021 29.5 30.2083 29.5 29.5C29.5 28.7917 29.2604 28.1979 28.7812 27.7188C28.3021 27.2396 27.7083 27 27 27C26.2917 27 25.6979 27.2396 25.2188 27.7188C24.7396 28.1979 24.5 28.7917 24.5 29.5C24.5 30.2083 24.7396 30.8021 25.2188 31.2812C25.6979 31.7604 26.2917 32 27 32ZM17 52V47L32 44.5V16.6875C32 16.0625 31.8125 15.5 31.4375 15C31.0625 14.5 30.5833 14.2083 30 14.125L17 12V7L30.75 9.25C32.5833 9.58333 34.0833 10.4375 35.25 11.8125C36.4167 13.1875 37 14.7917 37 16.625V44.375C37 45.5833 36.6042 46.6562 35.8125 47.5938C35.0208 48.5312 34.0208 49.1042 32.8125 49.3125L17 52ZM17 47H33.5L32.8125 14.125L17 12V47ZM9.5 52C8.79167 52 8.19792 51.7604 7.71875 51.2812C7.23958 50.8021 7 50.2083 7 49.5C7 48.7917 7.23958 48.1979 7.71875 47.7188C8.19792 47.2396 8.79167 47 9.5 47H12V12C12 10.625 12.4896 9.44792 13.4688 8.46875C14.4479 7.48958 15.625 7 17 7H42C43.375 7 44.5521 7.48958 45.5312 8.46875C46.5104 9.44792 47 10.625 47 12V47H49.5C50.2083 47 50.8021 47.2396 51.2812 47.7188C51.7604 48.1979 52 48.7917 52 49.5C52 50.2083 51.7604 50.8021 51.2812 51.2812C50.8021 51.7604 50.2083 52 49.5 52H9.5Z" fill="white"/>
</svg>
