<svg width="60" height="60" viewBox="0 0 60 60" fill="none" xmlns="http://www.w3.org/2000/svg">
<path d="M15.5 47H19.5C20.2083 47 20.8021 47.2396 21.2812 47.7188C21.7604 48.1979 22 48.7917 22 49.5C22 50.2083 21.7604 50.8021 21.2812 51.2812C20.8021 51.7604 20.2083 52 19.5 52H9.5C8.79167 52 8.19792 51.7604 7.71875 51.2812C7.23958 50.8021 7 50.2083 7 49.5V39.5C7 38.7917 7.23958 38.1979 7.71875 37.7188C8.19792 37.2396 8.79167 37 9.5 37C10.2083 37 10.8021 37.2396 11.2812 37.7188C11.7604 38.1979 12 38.7917 12 39.5V43.5L18 37.5C18.4583 37.0417 19.0417 36.8125 19.75 36.8125C20.4583 36.8125 21.0417 37.0417 21.5 37.5C21.9583 37.9583 22.1875 38.5417 22.1875 39.25C22.1875 39.9583 21.9583 40.5417 21.5 41L15.5 47ZM47 15.5L41 21.5C40.5417 21.9583 39.9583 22.1875 39.25 22.1875C38.5417 22.1875 37.9583 21.9583 37.5 21.5C37.0417 21.0417 36.8125 20.4583 36.8125 19.75C36.8125 19.0417 37.0417 18.4583 37.5 18L43.5 12H39.5C38.7917 12 38.1979 11.7604 37.7188 11.2812C37.2396 10.8021 37 10.2083 37 9.5C37 8.79167 37.2396 8.19792 37.7188 7.71875C38.1979 7.23958 38.7917 7 39.5 7H49.5C50.2083 7 50.8021 7.23958 51.2812 7.71875C51.7604 8.19792 52 8.79167 52 9.5V19.5C52 20.2083 51.7604 20.8021 51.2812 21.2812C50.8021 21.7604 50.2083 22 49.5 22C48.7917 22 48.1979 21.7604 47.7188 21.2812C47.2396 20.8021 47 20.2083 47 19.5V15.5Z" fill="white"/>
</svg>
