<svg width="60" height="60" viewBox="0 0 60 60" fill="none" xmlns="http://www.w3.org/2000/svg">
<path d="M49.25 27.3125L45.75 30.75C45.2917 31.2083 44.7188 31.4479 44.0312 31.4688C43.3438 31.4896 42.75 31.25 42.25 30.75C41.7917 30.2917 41.5625 29.7083 41.5625 29C41.5625 28.2917 41.7917 27.7083 42.25 27.25L45.6875 23.75L42.25 20.3125C41.7917 19.8542 41.5625 19.2812 41.5625 18.5938C41.5625 17.9062 41.7917 17.3125 42.25 16.8125C42.75 16.3125 43.3438 16.0625 44.0312 16.0625C44.7188 16.0625 45.3125 16.3125 45.8125 16.8125L49.25 20.25L52.6875 16.75C53.1458 16.25 53.7188 16 54.4062 16C55.0938 16 55.6875 16.25 56.1875 16.75C56.6875 17.25 56.9375 17.8438 56.9375 18.5312C56.9375 19.2188 56.6875 19.8125 56.1875 20.3125L52.75 23.75L56.25 27.25C56.75 27.75 56.9896 28.3333 56.9688 29C56.9479 29.6667 56.6875 30.25 56.1875 30.75C55.6875 31.2083 55.1042 31.4479 54.4375 31.4688C53.7708 31.4896 53.1875 31.25 52.6875 30.75L49.25 27.3125ZM23 30C20.25 30 17.8958 29.0208 15.9375 27.0625C13.9792 25.1042 13 22.75 13 20C13 17.25 13.9792 14.8958 15.9375 12.9375C17.8958 10.9792 20.25 10 23 10C25.75 10 28.1042 10.9792 30.0625 12.9375C32.0208 14.8958 33 17.25 33 20C33 22.75 32.0208 25.1042 30.0625 27.0625C28.1042 29.0208 25.75 30 23 30ZM3 45V43C3 41.5833 3.36458 40.2812 4.09375 39.0938C4.82292 37.9062 5.79167 37 7 36.375C9.58333 35.0833 12.2083 34.1146 14.875 33.4688C17.5417 32.8229 20.25 32.5 23 32.5C25.75 32.5 28.4583 32.8229 31.125 33.4688C33.7917 34.1146 36.4167 35.0833 39 36.375C40.2083 37 41.1771 37.9062 41.9062 39.0938C42.6354 40.2812 43 41.5833 43 43V45C43 46.375 42.5104 47.5521 41.5312 48.5312C40.5521 49.5104 39.375 50 38 50H8C6.625 50 5.44792 49.5104 4.46875 48.5312C3.48958 47.5521 3 46.375 3 45ZM8 45H38V43C38 42.5417 37.8854 42.125 37.6562 41.75C37.4271 41.375 37.125 41.0833 36.75 40.875C34.5 39.75 32.2292 38.9062 29.9375 38.3438C27.6458 37.7812 25.3333 37.5 23 37.5C20.6667 37.5 18.3542 37.7812 16.0625 38.3438C13.7708 38.9062 11.5 39.75 9.25 40.875C8.875 41.0833 8.57292 41.375 8.34375 41.75C8.11458 42.125 8 42.5417 8 43V45ZM23 25C24.375 25 25.5521 24.5104 26.5312 23.5312C27.5104 22.5521 28 21.375 28 20C28 18.625 27.5104 17.4479 26.5312 16.4688C25.5521 15.4896 24.375 15 23 15C21.625 15 20.4479 15.4896 19.4688 16.4688C18.4896 17.4479 18 18.625 18 20C18 21.375 18.4896 22.5521 19.4688 23.5312C20.4479 24.5104 21.625 25 23 25Z" fill="white"/>
</svg>
