<svg width="60" height="60" viewBox="0 0 60 60" fill="none" xmlns="http://www.w3.org/2000/svg">
<path d="M9 38.5C7.66667 38.5 6.5 38 5.5 37C4.5 36 4 34.8333 4 33.5L4 28.5C4 28.2083 4.04167 27.8958 4.125 27.5625C4.20833 27.2292 4.29167 26.9167 4.375 26.625L11.875 9C12.25 8.16666 12.875 7.45833 13.75 6.875C14.625 6.29166 15.5417 6 16.5 6L44 6L44 38.5L29 53.375C28.375 54 27.6354 54.3646 26.7813 54.4687C25.9271 54.5729 25.1042 54.4167 24.3125 54C23.5208 53.5833 22.9375 53 22.5625 52.25C22.1875 51.5 22.1042 50.7292 22.3125 49.9375L25.125 38.5L9 38.5ZM39 36.375L39 11L16.5 11L9 28.5L9 33.5L31.5 33.5L28.125 47.25L39 36.375ZM51.5 6C52.875 6 54.0521 6.48958 55.0313 7.46875C56.0104 8.44792 56.5 9.625 56.5 11L56.5 33.5C56.5 34.875 56.0104 36.0521 55.0313 37.0312C54.0521 38.0104 52.875 38.5 51.5 38.5L44 38.5L44 33.5L51.5 33.5L51.5 11L44 11L44 6L51.5 6Z" fill="white"/>
</svg>
