<svg width="60" height="60" viewBox="0 0 60 60" fill="none" xmlns="http://www.w3.org/2000/svg">
<path d="M51.5 22C52.8333 22 54 22.5 55 23.5C56 24.5 56.5 25.6667 56.5 27V32C56.5 32.2917 56.4583 32.6042 56.375 32.9375C56.2917 33.2708 56.2083 33.5833 56.125 33.875L48.625 51.5C48.25 52.3333 47.625 53.0417 46.75 53.625C45.875 54.2083 44.9583 54.5 44 54.5H16.5V22L31.5 7.125C32.125 6.5 32.8646 6.13542 33.7188 6.03125C34.5729 5.92708 35.3958 6.08333 36.1875 6.5C36.9792 6.91667 37.5625 7.5 37.9375 8.25C38.3125 9 38.3958 9.77083 38.1875 10.5625L35.375 22H51.5ZM21.5 24.125V49.5H44L51.5 32V27H29L32.375 13.25L21.5 24.125ZM9 54.5C7.625 54.5 6.44792 54.0104 5.46875 53.0312C4.48958 52.0521 4 50.875 4 49.5V27C4 25.625 4.48958 24.4479 5.46875 23.4688C6.44792 22.4896 7.625 22 9 22H16.5V27H9V49.5H16.5V54.5H9Z" fill="white"/>
</svg>
