<svg width="60" height="60" viewBox="0 0 60 60" fill="none" xmlns="http://www.w3.org/2000/svg">
<path d="M30 30C27.25 30 24.8958 29.0208 22.9375 27.0625C20.9792 25.1042 20 22.75 20 20C20 17.25 20.9792 14.8958 22.9375 12.9375C24.8958 10.9792 27.25 10 30 10C32.75 10 35.1042 10.9792 37.0625 12.9375C39.0208 14.8958 40 17.25 40 20C40 22.75 39.0208 25.1042 37.0625 27.0625C35.1042 29.0208 32.75 30 30 30ZM10 45V43C10 41.5833 10.3646 40.2812 11.0938 39.0938C11.8229 37.9062 12.7917 37 14 36.375C16.5833 35.0833 19.2083 34.1146 21.875 33.4688C24.5417 32.8229 27.25 32.5 30 32.5C32.75 32.5 35.4583 32.8229 38.125 33.4688C40.7917 34.1146 43.4167 35.0833 46 36.375C47.2083 37 48.1771 37.9062 48.9062 39.0938C49.6354 40.2812 50 41.5833 50 43V45C50 46.375 49.5104 47.5521 48.5312 48.5312C47.5521 49.5104 46.375 50 45 50H15C13.625 50 12.4479 49.5104 11.4688 48.5312C10.4896 47.5521 10 46.375 10 45ZM15 45H45V43C45 42.5417 44.8854 42.125 44.6562 41.75C44.4271 41.375 44.125 41.0833 43.75 40.875C41.5 39.75 39.2292 38.9062 36.9375 38.3438C34.6458 37.7812 32.3333 37.5 30 37.5C27.6667 37.5 25.3542 37.7812 23.0625 38.3438C20.7708 38.9062 18.5 39.75 16.25 40.875C15.875 41.0833 15.5729 41.375 15.3438 41.75C15.1146 42.125 15 42.5417 15 43V45ZM30 25C31.375 25 32.5521 24.5104 33.5312 23.5312C34.5104 22.5521 35 21.375 35 20C35 18.625 34.5104 17.4479 33.5312 16.4688C32.5521 15.4896 31.375 15 30 15C28.625 15 27.4479 15.4896 26.4688 16.4688C25.4896 17.4479 25 18.625 25 20C25 21.375 25.4896 22.5521 26.4688 23.5312C27.4479 24.5104 28.625 25 30 25Z" fill="white"/>
</svg>
