<svg width="60" height="60" viewBox="0 0 60 60" fill="none" xmlns="http://www.w3.org/2000/svg">
<path d="M17 45C12.8333 45 9.29167 43.5417 6.375 40.625C3.45833 37.7083 2 34.1667 2 30C2 25.8333 3.45833 22.2917 6.375 19.375C9.29167 16.4583 12.8333 15 17 15C19.75 15 22.2708 15.6875 24.5625 17.0625C26.8542 18.4375 28.6667 20.25 30 22.5H52C53.375 22.5 54.5521 22.9896 55.5312 23.9688C56.5104 24.9479 57 26.125 57 27.5V32.5C57 33.875 56.5104 35.0521 55.5312 36.0312C54.5521 37.0104 53.375 37.5 52 37.5V40C52 41.375 51.5104 42.5521 50.5312 43.5312C49.5521 44.5104 48.375 45 47 45H42C40.625 45 39.4479 44.5104 38.4688 43.5312C37.4896 42.5521 37 41.375 37 40V37.5H30C28.6667 39.75 26.8542 41.5625 24.5625 42.9375C22.2708 44.3125 19.75 45 17 45ZM17 40C19.75 40 21.9583 39.1562 23.625 37.4688C25.2917 35.7812 26.2917 34.125 26.625 32.5H42V40H47V32.5H52V27.5H26.625C26.2917 25.875 25.2917 24.2188 23.625 22.5312C21.9583 20.8438 19.75 20 17 20C14.25 20 11.8958 20.9792 9.9375 22.9375C7.97917 24.8958 7 27.25 7 30C7 32.75 7.97917 35.1042 9.9375 37.0625C11.8958 39.0208 14.25 40 17 40ZM17 35C18.375 35 19.5521 34.5104 20.5312 33.5312C21.5104 32.5521 22 31.375 22 30C22 28.625 21.5104 27.4479 20.5312 26.4688C19.5521 25.4896 18.375 25 17 25C15.625 25 14.4479 25.4896 13.4688 26.4688C12.4896 27.4479 12 28.625 12 30C12 31.375 12.4896 32.5521 13.4688 33.5312C14.4479 34.5104 15.625 35 17 35Z" fill="white"/>
</svg>
