<svg width="60" height="60" viewBox="0 0 60 60" fill="none" xmlns="http://www.w3.org/2000/svg">
<path d="M30.4375 33.9375L18.1875 46.1875C17.7292 46.6458 17.1458 46.875 16.4375 46.875C15.7292 46.875 15.1458 46.6458 14.6875 46.1875C14.2292 45.7292 14 45.1458 14 44.4375C14 43.7292 14.2292 43.1458 14.6875 42.6875L26.9375 30.4375L14.6875 18.1875C14.2292 17.7292 14 17.1458 14 16.4375C14 15.7292 14.2292 15.1458 14.6875 14.6875C15.1458 14.2292 15.7292 14 16.4375 14C17.1458 14 17.7292 14.2292 18.1875 14.6875L30.4375 26.9375L42.6875 14.6875C43.1458 14.2292 43.7292 14 44.4375 14C45.1458 14 45.7292 14.2292 46.1875 14.6875C46.6458 15.1458 46.875 15.7292 46.875 16.4375C46.875 17.1458 46.6458 17.7292 46.1875 18.1875L33.9375 30.4375L46.1875 42.6875C46.6458 43.1458 46.875 43.7292 46.875 44.4375C46.875 45.1458 46.6458 45.7292 46.1875 46.1875C45.7292 46.6458 45.1458 46.875 44.4375 46.875C43.7292 46.875 43.1458 46.6458 42.6875 46.1875L30.4375 33.9375Z" fill="white"/>
</svg>
