<svg width="60" height="60" viewBox="0 0 60 60" fill="none" xmlns="http://www.w3.org/2000/svg">
<path d="M30.625 33.4375L15.8125 48.25C15.3125 48.75 14.7188 49 14.0312 49C13.3438 49 12.75 48.75 12.25 48.25C11.75 47.75 11.5 47.1562 11.5 46.4688C11.5 45.7812 11.75 45.1875 12.25 44.6875L34.5 22.5H28V25C28 25.7083 27.7604 26.3021 27.2812 26.7812C26.8021 27.2604 26.2083 27.5 25.5 27.5C24.7917 27.5 24.1979 27.2604 23.7188 26.7812C23.2396 26.3021 23 25.7083 23 25V20C23 19.2917 23.2396 18.6979 23.7188 18.2188C24.1979 17.7396 24.7917 17.5 25.5 17.5H37.625C38.2917 17.5 38.9271 17.625 39.5312 17.875C40.1354 18.125 40.6667 18.4792 41.125 18.9375L48.625 26.375C49.4583 27.2083 50.4271 27.9062 51.5312 28.4688C52.6354 29.0312 53.8333 29.4375 55.125 29.6875C55.8333 29.8125 56.4479 30.1354 56.9688 30.6562C57.4896 31.1771 57.75 31.7917 57.75 32.5C57.75 33.2083 57.4583 33.7917 56.875 34.25C56.2917 34.7083 55.6458 34.8958 54.9375 34.8125C53.0625 34.5625 51.3333 34.0625 49.75 33.3125C48.1667 32.5625 46.7083 31.5417 45.375 30.25L42.875 27.625L37.375 33.125L40.6875 36.4375C41.2708 37.0208 41.5104 37.7188 41.4062 38.5312C41.3021 39.3438 40.8958 39.9583 40.1875 40.375L28.8125 46.9375C28.2292 47.2708 27.5938 47.3542 26.9062 47.1875C26.2188 47.0208 25.7083 46.6458 25.375 46.0625C25.0417 45.4792 24.9688 44.8438 25.1562 44.1562C25.3438 43.4688 25.7292 42.9583 26.3125 42.625L34.875 37.6875L30.625 33.4375ZM10.5 32.5C9.79167 32.5 9.19792 32.2604 8.71875 31.7812C8.23958 31.3021 8 30.7083 8 30C8 29.2917 8.23958 28.6979 8.71875 28.2188C9.19792 27.7396 9.79167 27.5 10.5 27.5H18C18.7083 27.5 19.3021 27.7396 19.7812 28.2188C20.2604 28.6979 20.5 29.2917 20.5 30C20.5 30.7083 20.2604 31.3021 19.7812 31.7812C19.3021 32.2604 18.7083 32.5 18 32.5H10.5ZM5.5 25C4.79167 25 4.19792 24.7604 3.71875 24.2812C3.23958 23.8021 3 23.2083 3 22.5C3 21.7917 3.23958 21.1979 3.71875 20.7188C4.19792 20.2396 4.79167 20 5.5 20H13C13.7083 20 14.3021 20.2396 14.7812 20.7188C15.2604 21.1979 15.5 21.7917 15.5 22.5C15.5 23.2083 15.2604 23.8021 14.7812 24.2812C14.3021 24.7604 13.7083 25 13 25H5.5ZM49.1875 20C47.8125 20 46.625 19.5104 45.625 18.5312C44.625 17.5521 44.125 16.375 44.125 15C44.125 13.625 44.625 12.4479 45.625 11.4688C46.625 10.4896 47.8125 10 49.1875 10C50.5625 10 51.75 10.4896 52.75 11.4688C53.75 12.4479 54.25 13.625 54.25 15C54.25 16.375 53.75 17.5521 52.75 18.5312C51.75 19.5104 50.5625 20 49.1875 20ZM10.5 17.5C9.79167 17.5 9.19792 17.2604 8.71875 16.7812C8.23958 16.3021 8 15.7083 8 15C8 14.2917 8.23958 13.6979 8.71875 13.2188C9.19792 12.7396 9.79167 12.5 10.5 12.5H18C18.7083 12.5 19.3021 12.7396 19.7812 13.2188C20.2604 13.6979 20.5 14.2917 20.5 15C20.5 15.7083 20.2604 16.3021 19.7812 16.7812C19.3021 17.2604 18.7083 17.5 18 17.5H10.5Z" fill="white"/>
</svg>
