<svg width="60" height="60" viewBox="0 0 60 60" fill="none" xmlns="http://www.w3.org/2000/svg">
<path d="M40.25 34.1875L36.625 30.5625C37.0833 28.3542 36.5104 26.4688 34.9063 24.9062C33.3021 23.3438 31.375 22.7292 29.125 23.0625L25.5 19.4375C26.2083 19.1042 26.9375 18.8542 27.6875 18.6875C28.4375 18.5208 29.2083 18.4375 30 18.4375C33.125 18.4375 35.7812 19.5312 37.9688 21.7188C40.1562 23.9062 41.25 26.5625 41.25 29.6875C41.25 30.4792 41.1667 31.25 41 32C40.8333 32.75 40.5833 33.4792 40.25 34.1875ZM48.25 42.0625L44.625 38.5625C46.2083 37.3542 47.625 36.0104 48.875 34.5312C50.125 33.0521 51.1667 31.4375 52 29.6875C49.9167 25.4792 46.9062 22.1354 42.9688 19.6562C39.0312 17.1771 34.7083 15.9375 30 15.9375C28.7917 15.9375 27.6146 16.0208 26.4688 16.1875C25.3229 16.3542 24.1667 16.6042 23 16.9375L19.125 13.0625C20.875 12.3542 22.6562 11.8229 24.4688 11.4688C26.2812 11.1146 28.125 10.9375 30 10.9375C35.7083 10.9375 40.9271 12.4375 45.6562 15.4375C50.3854 18.4375 54 22.4792 56.5 27.5625C56.6667 27.8958 56.7917 28.2396 56.875 28.5938C56.9583 28.9479 57 29.3125 57 29.6875C57 30.0625 56.9688 30.4271 56.9063 30.7812C56.8438 31.1354 56.7292 31.4792 56.5625 31.8125C55.6458 33.8542 54.4792 35.7396 53.0625 37.4688C51.6458 39.1979 50.0417 40.7292 48.25 42.0625ZM30 48.4375C24.4167 48.4375 19.3125 46.9271 14.6875 43.9062C10.0625 40.8854 6.41667 36.9167 3.75 32C3.54167 31.6667 3.38542 31.3021 3.28125 30.9062C3.17708 30.5104 3.125 30.1042 3.125 29.6875C3.125 29.2708 3.16667 28.875 3.25 28.5C3.33333 28.125 3.47917 27.75 3.6875 27.375C4.52083 25.7083 5.48958 24.1146 6.59375 22.5938C7.69792 21.0729 8.95833 19.6875 10.375 18.4375L5.1875 13.1875C4.72917 12.6875 4.51042 12.0938 4.53125 11.4062C4.55208 10.7188 4.79167 10.1458 5.25 9.6875C5.70833 9.22917 6.29167 9 7 9C7.70833 9 8.29167 9.22917 8.75 9.6875L51.25 52.1875C51.7083 52.6458 51.9479 53.2188 51.9688 53.9062C51.9896 54.5938 51.75 55.1875 51.25 55.6875C50.7917 56.1458 50.2083 56.375 49.5 56.375C48.7917 56.375 48.2083 56.1458 47.75 55.6875L39 47.0625C37.5417 47.5208 36.0625 47.8646 34.5625 48.0938C33.0625 48.3229 31.5417 48.4375 30 48.4375ZM13.875 21.9375C12.6667 23.0208 11.5625 24.2083 10.5625 25.5C9.5625 26.7917 8.70833 28.1875 8 29.6875C10.0833 33.8958 13.0938 37.2396 17.0313 39.7188C20.9688 42.1979 25.2917 43.4375 30 43.4375C30.8333 43.4375 31.6458 43.3854 32.4375 43.2812C33.2292 43.1771 34.0417 43.0625 34.875 42.9375L32.625 40.5625C32.1667 40.6875 31.7292 40.7812 31.3125 40.8438C30.8958 40.9062 30.4583 40.9375 30 40.9375C26.875 40.9375 24.2188 39.8438 22.0312 37.6562C19.8438 35.4688 18.75 32.8125 18.75 29.6875C18.75 29.2292 18.7813 28.7917 18.8438 28.375C18.9063 27.9583 19 27.5208 19.125 27.0625L13.875 21.9375Z" fill="white"/>
</svg>
