<svg width="60" height="60" viewBox="0 0 60 60" fill="none" xmlns="http://www.w3.org/2000/svg">
<path fill-rule="evenodd" clip-rule="evenodd" d="M9.26777 6.73223C8.29146 5.75592 6.70854 5.75592 5.73223 6.73223C4.75592 7.70854 4.75592 9.29146 5.73223 10.2678L13 17.5355V46.4375C13 48.2292 13.75 49.6146 15.25 50.5938C16.75 51.5729 18.3333 51.7083 20 51L30.5 46.5L41 51C42.6667 51.7083 44.25 51.5729 45.75 50.5938C45.8125 50.5529 45.8737 50.5114 45.9337 50.4692L51.7322 56.2678C52.7085 57.2441 54.2915 57.2441 55.2678 56.2678C56.2441 55.2915 56.2441 53.7085 55.2678 52.7322L9.26777 6.73223ZM40.964 45.4995L18 22.5355V30.1875V46.375L30.5 41L40.964 45.4995ZM43 14V33.4645L48 38.4645V14C48 12.625 47.5104 11.4479 46.5312 10.4688C45.5521 9.48958 44.375 9 43 9H18.5355L23.5355 14H30.5H43Z" fill="white"/>
</svg>
