<svg width="60" height="60" viewBox="0 0 60 60" fill="none" xmlns="http://www.w3.org/2000/svg">
<path d="M18.4375 11.8125L17.0625 7.8125C16.8958 7.35417 16.9271 6.89583 17.1562 6.4375C17.3854 5.97917 17.75 5.66667 18.25 5.5C18.7083 5.33333 19.1667 5.375 19.625 5.625C20.0833 5.875 20.3958 6.22917 20.5625 6.6875L21.9375 10.625C22.1042 11.0833 22.0625 11.5417 21.8125 12C21.5625 12.4583 21.2083 12.7708 20.75 12.9375C20.25 13.1042 19.7812 13.0833 19.3438 12.875C18.9062 12.6667 18.6042 12.3125 18.4375 11.8125ZM27.625 8.625V4.875C27.625 4.33333 27.8021 3.88542 28.1562 3.53125C28.5104 3.17708 28.9583 3 29.5 3C30.0417 3 30.4896 3.17708 30.8438 3.53125C31.1979 3.88542 31.375 4.33333 31.375 4.875V8.625C31.375 9.16667 31.1979 9.61458 30.8438 9.96875C30.4896 10.3229 30.0417 10.5 29.5 10.5C28.9583 10.5 28.5104 10.3229 28.1562 9.96875C27.8021 9.61458 27.625 9.16667 27.625 8.625ZM37.125 10.625L38.4375 6.6875C38.6042 6.22917 38.9062 5.88542 39.3438 5.65625C39.7812 5.42708 40.25 5.39583 40.75 5.5625C41.2083 5.72917 41.5625 6.04167 41.8125 6.5C42.0625 6.95833 42.1042 7.41667 41.9375 7.875L40.5625 11.8125C40.3958 12.2708 40.0833 12.625 39.625 12.875C39.1667 13.125 38.7083 13.1667 38.25 13C37.7917 12.8333 37.4479 12.5104 37.2188 12.0312C36.9896 11.5521 36.9583 11.0833 37.125 10.625ZM6.875 57.6875C6.33333 57.7708 5.83333 57.6458 5.375 57.3125C4.91667 56.9792 4.64583 56.5417 4.5625 56L4.4375 55C4.35417 54.4583 4.46875 53.9688 4.78125 53.5312C5.09375 53.0938 5.52083 52.8333 6.0625 52.75L17.3125 51.0625C17.7708 50.9792 18.1771 50.7812 18.5312 50.4688C18.8854 50.1562 19.1458 49.7708 19.3125 49.3125L21.4375 42.6875C21.6458 42.1042 21.6458 41.5417 21.4375 41C21.2292 40.4583 20.8542 40.0417 20.3125 39.75L19 43.875C18.7917 44.5417 18.3854 45.0312 17.7812 45.3438C17.1771 45.6562 16.5417 45.7083 15.875 45.5C15.2083 45.2917 14.7188 44.8854 14.4062 44.2812C14.0938 43.6771 14.0417 43.0417 14.25 42.375L19 27.375C19.0833 27.125 19.125 26.8542 19.125 26.5625C19.125 26.2708 19.0833 26 19 25.75L10.625 41.5C9.95833 42.7083 9.03125 43.6771 7.84375 44.4062C6.65625 45.1354 5.375 45.5 4 45.5C3.41667 45.5 2.9375 45.3125 2.5625 44.9375C2.1875 44.5625 2 44.0833 2 43.5V42.5C2 41.9167 2.1875 41.4375 2.5625 41.0625C2.9375 40.6875 3.41667 40.5 4 40.5C4.45833 40.5 4.88542 40.3854 5.28125 40.1562C5.67708 39.9271 5.97917 39.6042 6.1875 39.1875L16.0625 20.5625C16.3958 19.9375 16.8958 19.5312 17.5625 19.3438C18.2292 19.1562 18.875 19.2292 19.5 19.5625L20.375 20.0625C21.9167 20.9375 23.0104 22.1979 23.6562 23.8438C24.3021 25.4896 24.3542 27.1667 23.8125 28.875L21.875 35C23.7083 35.7083 25.0312 36.9583 25.8438 38.75C26.6562 40.5417 26.7708 42.375 26.1875 44.25L24.0625 50.875C23.6042 52.2083 22.8438 53.3438 21.7812 54.2812C20.7188 55.2188 19.4792 55.7917 18.0625 56L6.875 57.6875ZM40.9375 56C39.5208 55.7917 38.2812 55.2188 37.2188 54.2812C36.1562 53.3438 35.3958 52.2083 34.9375 50.875L32.8125 44.25C32.2292 42.375 32.3438 40.5417 33.1562 38.75C33.9688 36.9583 35.2917 35.7083 37.125 35L35.1875 28.875C34.6458 27.1667 34.6979 25.4896 35.3438 23.8438C35.9896 22.1979 37.0833 20.9375 38.625 20.0625L39.5 19.5625C40.125 19.2292 40.7708 19.1562 41.4375 19.3438C42.1042 19.5312 42.6042 19.9375 42.9375 20.5625L52.8125 39.1875C53.0208 39.6042 53.3229 39.9271 53.7188 40.1562C54.1146 40.3854 54.5417 40.5 55 40.5C55.5833 40.5 56.0625 40.6875 56.4375 41.0625C56.8125 41.4375 57 41.9167 57 42.5V43.5C57 44.0833 56.8125 44.5625 56.4375 44.9375C56.0625 45.3125 55.5833 45.5 55 45.5C53.625 45.5 52.3438 45.1354 51.1562 44.4062C49.9688 43.6771 49.0417 42.7083 48.375 41.5L40 25.75C39.9167 26 39.875 26.2708 39.875 26.5625C39.875 26.8542 39.9167 27.125 40 27.375L44.75 42.375C44.9583 43.0417 44.9062 43.6771 44.5938 44.2812C44.2812 44.8854 43.7917 45.2917 43.125 45.5C42.4583 45.7083 41.8229 45.6562 41.2188 45.3438C40.6146 45.0312 40.2083 44.5417 40 43.875L38.6875 39.75C38.1458 40.0417 37.7708 40.4583 37.5625 41C37.3542 41.5417 37.3542 42.1042 37.5625 42.6875L39.6875 49.3125C39.8542 49.7708 40.1146 50.1562 40.4688 50.4688C40.8229 50.7812 41.2292 50.9792 41.6875 51.0625L52.9375 52.75C53.4792 52.8333 53.9062 53.0938 54.2188 53.5312C54.5312 53.9688 54.6458 54.4583 54.5625 55L54.4375 56C54.3542 56.5417 54.0833 56.9792 53.625 57.3125C53.1667 57.6458 52.6667 57.7708 52.125 57.6875L40.9375 56Z" fill="white"/>
</svg>
