<svg width="60" height="60" viewBox="0 0 60 60" fill="none" xmlns="http://www.w3.org/2000/svg">
<path d="M10 50C8.625 50 7.44792 49.5104 6.46875 48.5312C5.48958 47.5521 5 46.375 5 45V15C5 13.625 5.48958 12.4479 6.46875 11.4688C7.44792 10.4896 8.625 10 10 10H50C51.375 10 52.5521 10.4896 53.5312 11.4688C54.5104 12.4479 55 13.625 55 15V45C55 46.375 54.5104 47.5521 53.5312 48.5312C52.5521 49.5104 51.375 50 50 50H10ZM50 20L31.3125 31.6875C31.1042 31.8125 30.8854 31.9062 30.6562 31.9688C30.4271 32.0312 30.2083 32.0625 30 32.0625C29.7917 32.0625 29.5729 32.0312 29.3438 31.9688C29.1146 31.9062 28.8958 31.8125 28.6875 31.6875L10 20V45H50V20ZM30 27.5L50 15H10L30 27.5ZM10 20.625V16.9375V17V16.9688V20.625Z" fill="white"/>
</svg>
