<svg width="60" height="60" viewBox="0 0 60 60" fill="none" xmlns="http://www.w3.org/2000/svg">
<path d="M22.5 32.5H27.5V25.625H32.5V32.5H37.5V20.625L30 15.625L22.5 20.625V32.5ZM30 48.375C35.0833 43.7083 38.8542 39.4688 41.3125 35.6562C43.7708 31.8438 45 28.4583 45 25.5C45 20.9583 43.5521 17.2396 40.6562 14.3438C37.7604 11.4479 34.2083 10 30 10C25.7917 10 22.2396 11.4479 19.3438 14.3438C16.4479 17.2396 15 20.9583 15 25.5C15 28.4583 16.2292 31.8438 18.6875 35.6562C21.1458 39.4688 24.9167 43.7083 30 48.375ZM30 53.3125C29.4167 53.3125 28.8333 53.2083 28.25 53C27.6667 52.7917 27.1458 52.4792 26.6875 52.0625C23.9792 49.5625 21.5833 47.125 19.5 44.75C17.4167 42.375 15.6771 40.0729 14.2812 37.8438C12.8854 35.6146 11.8229 33.4688 11.0938 31.4062C10.3646 29.3438 10 27.375 10 25.5C10 19.25 12.0104 14.2708 16.0312 10.5625C20.0521 6.85417 24.7083 5 30 5C35.2917 5 39.9479 6.85417 43.9688 10.5625C47.9896 14.2708 50 19.25 50 25.5C50 27.375 49.6354 29.3438 48.9062 31.4062C48.1771 33.4688 47.1146 35.6146 45.7188 37.8438C44.3229 40.0729 42.5833 42.375 40.5 44.75C38.4167 47.125 36.0208 49.5625 33.3125 52.0625C32.8542 52.4792 32.3333 52.7917 31.75 53C31.1667 53.2083 30.5833 53.3125 30 53.3125Z" fill="white"/>
</svg>
