<svg width="60" height="60" viewBox="0 0 60 60" fill="none" xmlns="http://www.w3.org/2000/svg">
<path d="M30.125 55C29.0417 55 28.0625 54.7396 27.1875 54.2188C26.3125 53.6979 25.625 53 25.125 52.125C23.75 52.125 22.5729 51.6354 21.5938 50.6562C20.6146 49.6771 20.125 48.5 20.125 47.125V38.25C17.6667 36.625 15.6979 34.4792 14.2188 31.8125C12.7396 29.1458 12 26.25 12 23.125C12 18.0833 13.7604 13.8021 17.2812 10.2812C20.8021 6.76042 25.0833 5 30.125 5C35.1667 5 39.4479 6.76042 42.9688 10.2812C46.4896 13.8021 48.25 18.0833 48.25 23.125C48.25 26.3333 47.5104 29.25 46.0312 31.875C44.5521 34.5 42.5833 36.625 40.125 38.25V47.125C40.125 48.5 39.6354 49.6771 38.6562 50.6562C37.6771 51.6354 36.5 52.125 35.125 52.125C34.625 53 33.9375 53.6979 33.0625 54.2188C32.1875 54.7396 31.2083 55 30.125 55ZM25.125 47.125H35.125V44.875H25.125V47.125ZM25.125 42.375H35.125V40H25.125V42.375ZM24.625 35H28.25V28.25L24.0625 24.0625C23.6875 23.6875 23.5 23.25 23.5 22.75C23.5 22.25 23.6875 21.8125 24.0625 21.4375C24.4375 21.0625 24.875 20.875 25.375 20.875C25.875 20.875 26.3125 21.0625 26.6875 21.4375L30.125 24.875L33.5625 21.4375C33.9375 21.0625 34.375 20.875 34.875 20.875C35.375 20.875 35.8125 21.0625 36.1875 21.4375C36.5625 21.8125 36.75 22.25 36.75 22.75C36.75 23.25 36.5625 23.6875 36.1875 24.0625L32 28.25V35H35.625C37.875 33.9167 39.7083 32.3229 41.125 30.2188C42.5417 28.1146 43.25 25.75 43.25 23.125C43.25 19.4583 41.9792 16.3542 39.4375 13.8125C36.8958 11.2708 33.7917 10 30.125 10C26.4583 10 23.3542 11.2708 20.8125 13.8125C18.2708 16.3542 17 19.4583 17 23.125C17 25.75 17.7083 28.1146 19.125 30.2188C20.5417 32.3229 22.375 33.9167 24.625 35Z" fill="white"/>
</svg>
