<svg width="60" height="60" viewBox="0 0 60 60" fill="none" xmlns="http://www.w3.org/2000/svg">
<path d="M25.6761 55C25.0511 55 24.5095 54.7917 24.0511 54.375C23.5928 53.9583 23.322 53.4375 23.2386 52.8125L22.4886 47C21.947 46.7917 21.4366 46.5417 20.9574 46.25C20.4782 45.9583 20.0095 45.6458 19.5511 45.3125L14.1136 47.5625C13.5303 47.8125 12.947 47.8438 12.3636 47.6562C11.7803 47.4688 11.322 47.1042 10.9886 46.5625L6.36364 38.5C6.0303 37.9583 5.92614 37.375 6.05114 36.75C6.17614 36.125 6.48864 35.625 6.98864 35.25L11.6761 31.6875C11.6345 31.3958 11.6136 31.1146 11.6136 30.8438V29.1562C11.6136 28.8854 11.6345 28.6042 11.6761 28.3125L6.98864 24.75C6.48864 24.375 6.17614 23.875 6.05114 23.25C5.92614 22.625 6.0303 22.0417 6.36364 21.5L10.9886 13.4375C11.322 12.8958 11.7803 12.5312 12.3636 12.3438C12.947 12.1562 13.5303 12.1875 14.1136 12.4375L19.5511 14.6875C20.0095 14.3542 20.4886 14.0417 20.9886 13.75C21.4886 13.4583 21.9886 13.2083 22.4886 13L23.2386 7.1875C23.322 6.5625 23.5928 6.04167 24.0511 5.625C24.5095 5.20833 25.0511 5 25.6761 5H35.0511C35.6761 5 36.2178 5.20833 36.6761 5.625C37.1345 6.04167 37.4053 6.5625 37.4886 7.1875L38.2386 13C38.7803 13.2083 39.2907 13.4583 39.7699 13.75C40.2491 14.0417 40.7178 14.3542 41.1761 14.6875L46.6136 12.4375C47.197 12.1875 47.7803 12.1562 48.3636 12.3438C48.947 12.5312 49.4053 12.8958 49.7386 13.4375L54.3636 21.5C54.697 22.0417 54.8011 22.625 54.6761 23.25C54.5511 23.875 54.2386 24.375 53.7386 24.75L49.0511 28.3125C49.0928 28.6042 49.1136 28.8854 49.1136 29.1562V30.8438C49.1136 31.1146 49.072 31.3958 48.9886 31.6875L53.6761 35.25C54.1761 35.625 54.4886 36.125 54.6136 36.75C54.7386 37.375 54.6345 37.9583 54.3011 38.5L49.6761 46.5C49.3428 47.0417 48.8741 47.4167 48.2699 47.625C47.6657 47.8333 47.072 47.8125 46.4886 47.5625L41.1761 45.3125C40.7178 45.6458 40.2386 45.9583 39.7386 46.25C39.2386 46.5417 38.7386 46.7917 38.2386 47L37.4886 52.8125C37.4053 53.4375 37.1345 53.9583 36.6761 54.375C36.2178 54.7917 35.6761 55 35.0511 55H25.6761ZM27.8636 50H32.8011L33.6761 43.375C34.9678 43.0417 36.1657 42.5521 37.2699 41.9062C38.3741 41.2604 39.3845 40.4792 40.3011 39.5625L46.4886 42.125L48.9261 37.875L43.5511 33.8125C43.7595 33.2292 43.9053 32.6146 43.9886 31.9688C44.072 31.3229 44.1136 30.6667 44.1136 30C44.1136 29.3333 44.072 28.6771 43.9886 28.0312C43.9053 27.3854 43.7595 26.7708 43.5511 26.1875L48.9261 22.125L46.4886 17.875L40.3011 20.5C39.3845 19.5417 38.3741 18.7396 37.2699 18.0938C36.1657 17.4479 34.9678 16.9583 33.6761 16.625L32.8636 10H27.9261L27.0511 16.625C25.7595 16.9583 24.5616 17.4479 23.4574 18.0938C22.3532 18.7396 21.3428 19.5208 20.4261 20.4375L14.2386 17.875L11.8011 22.125L17.1761 26.125C16.9678 26.75 16.822 27.375 16.7386 28C16.6553 28.625 16.6136 29.2917 16.6136 30C16.6136 30.6667 16.6553 31.3125 16.7386 31.9375C16.822 32.5625 16.9678 33.1875 17.1761 33.8125L11.8011 37.875L14.2386 42.125L20.4261 39.5C21.3428 40.4583 22.3532 41.2604 23.4574 41.9062C24.5616 42.5521 25.7595 43.0417 27.0511 43.375L27.8636 50ZM30.4886 38.75C32.9053 38.75 34.9678 37.8958 36.6761 36.1875C38.3845 34.4792 39.2386 32.4167 39.2386 30C39.2386 27.5833 38.3845 25.5208 36.6761 23.8125C34.9678 22.1042 32.9053 21.25 30.4886 21.25C28.0303 21.25 25.9574 22.1042 24.2699 23.8125C22.5824 25.5208 21.7386 27.5833 21.7386 30C21.7386 32.4167 22.5824 34.4792 24.2699 36.1875C25.9574 37.8958 28.0303 38.75 30.4886 38.75Z" fill="white"/>
</svg>
