<svg width="60" height="60" viewBox="0 0 60 60" fill="none" xmlns="http://www.w3.org/2000/svg">
<path d="M29.8125 41C32.9375 41 35.5938 39.9062 37.7812 37.7188C39.9688 35.5312 41.0625 32.875 41.0625 29.75C41.0625 26.625 39.9688 23.9688 37.7812 21.7812C35.5938 19.5938 32.9375 18.5 29.8125 18.5C26.6875 18.5 24.0312 19.5938 21.8438 21.7812C19.6562 23.9688 18.5625 26.625 18.5625 29.75C18.5625 32.875 19.6562 35.5312 21.8438 37.7188C24.0312 39.9062 26.6875 41 29.8125 41ZM29.8125 36.5C27.9375 36.5 26.3438 35.8438 25.0312 34.5312C23.7188 33.2188 23.0625 31.625 23.0625 29.75C23.0625 27.875 23.7188 26.2812 25.0312 24.9688C26.3438 23.6562 27.9375 23 29.8125 23C31.6875 23 33.2812 23.6562 34.5938 24.9688C35.9062 26.2812 36.5625 27.875 36.5625 29.75C36.5625 31.625 35.9062 33.2188 34.5938 34.5312C33.2812 35.8438 31.6875 36.5 29.8125 36.5ZM29.8125 48.5C24.2292 48.5 19.1354 47 14.5312 44C9.92708 41 6.29167 37.0417 3.625 32.125C3.41667 31.75 3.26042 31.3646 3.15625 30.9688C3.05208 30.5729 3 30.1667 3 29.75C3 29.3333 3.05208 28.9271 3.15625 28.5312C3.26042 28.1354 3.41667 27.75 3.625 27.375C6.29167 22.4583 9.92708 18.5 14.5312 15.5C19.1354 12.5 24.2292 11 29.8125 11C35.3958 11 40.4896 12.5 45.0938 15.5C49.6979 18.5 53.3333 22.4583 56 27.375C56.2083 27.75 56.3646 28.1354 56.4688 28.5312C56.5729 28.9271 56.625 29.3333 56.625 29.75C56.625 30.1667 56.5729 30.5729 56.4688 30.9688C56.3646 31.3646 56.2083 31.75 56 32.125C53.3333 37.0417 49.6979 41 45.0938 44C40.4896 47 35.3958 48.5 29.8125 48.5ZM29.8125 43.5C34.5208 43.5 38.8438 42.2604 42.7812 39.7812C46.7188 37.3021 49.7292 33.9583 51.8125 29.75C49.7292 25.5417 46.7188 22.1979 42.7812 19.7188C38.8438 17.2396 34.5208 16 29.8125 16C25.1042 16 20.7812 17.2396 16.8438 19.7188C12.9062 22.1979 9.89583 25.5417 7.8125 29.75C9.89583 33.9583 12.9062 37.3021 16.8438 39.7812C20.7812 42.2604 25.1042 43.5 29.8125 43.5Z" fill="white"/>
</svg>
