<svg width="60" height="60" viewBox="0 0 60 60" fill="none" xmlns="http://www.w3.org/2000/svg">
<path d="M17.5 52C16.125 52 14.9479 51.5104 13.9688 50.5312C12.9896 49.5521 12.5 48.375 12.5 47V14.5C11.7917 14.5 11.1979 14.2604 10.7188 13.7812C10.2396 13.3021 10 12.7083 10 12C10 11.2917 10.2396 10.6979 10.7188 10.2188C11.1979 9.73958 11.7917 9.5 12.5 9.5H22.5C22.5 8.79167 22.7396 8.19792 23.2188 7.71875C23.6979 7.23958 24.2917 7 25 7H35C35.7083 7 36.3021 7.23958 36.7812 7.71875C37.2604 8.19792 37.5 8.79167 37.5 9.5H47.5C48.2083 9.5 48.8021 9.73958 49.2812 10.2188C49.7604 10.6979 50 11.2917 50 12C50 12.7083 49.7604 13.3021 49.2812 13.7812C48.8021 14.2604 48.2083 14.5 47.5 14.5V47C47.5 48.375 47.0104 49.5521 46.0312 50.5312C45.0521 51.5104 43.875 52 42.5 52H17.5ZM42.5 14.5H17.5V47H42.5V14.5ZM22.5 42H27.5V19.5H22.5V42ZM32.5 42H37.5V19.5H32.5V42Z" fill="white"/>
</svg>
