<svg width="60" height="60" viewBox="0 0 60 60" fill="none" xmlns="http://www.w3.org/2000/svg">
<path d="M30 30C27.25 30 24.8958 29.0208 22.9375 27.0625C20.9792 25.1042 20 22.75 20 20C20 17.25 20.9792 14.8958 22.9375 12.9375C24.8958 10.9792 27.25 10 30 10C32.75 10 35.1042 10.9792 37.0625 12.9375C39.0208 14.8958 40 17.25 40 20C40 22.75 39.0208 25.1042 37.0625 27.0625C35.1042 29.0208 32.75 30 30 30ZM10 45V43C10 41.5833 10.3646 40.2812 11.0938 39.0938C11.8229 37.9062 12.7917 37 14 36.375C16.5833 35.0833 19.2083 34.1146 21.875 33.4688C24.5417 32.8229 27.25 32.5 30 32.5C32.75 32.5 35.4583 32.8229 38.125 33.4688C40.7917 34.1146 43.4167 35.0833 46 36.375C47.2083 37 48.1771 37.9062 48.9062 39.0938C49.6354 40.2812 50 41.5833 50 43V45C50 46.375 49.5104 47.5521 48.5312 48.5312C47.5521 49.5104 46.375 50 45 50H15C13.625 50 12.4479 49.5104 11.4688 48.5312C10.4896 47.5521 10 46.375 10 45Z" fill="white"/>
</svg>
