<svg width="60" height="60" viewBox="0 0 60 60" fill="none" xmlns="http://www.w3.org/2000/svg">
<path d="M30.4038 44.25L20.0288 50.5C19.5705 50.7917 19.0913 50.9167 18.5913 50.875C18.0913 50.8333 17.6538 50.6667 17.2788 50.375C16.9038 50.0833 16.6122 49.7188 16.4038 49.2812C16.1955 48.8438 16.1538 48.3542 16.2788 47.8125L19.0288 36L9.84135 28.0625C9.42468 27.6875 9.16426 27.2604 9.0601 26.7812C8.95593 26.3021 8.98718 25.8333 9.15385 25.375C9.32051 24.9167 9.57051 24.5417 9.90385 24.25C10.2372 23.9583 10.6955 23.7708 11.2788 23.6875L23.4038 22.625L28.0913 11.5C28.2997 11 28.6226 10.625 29.0601 10.375C29.4976 10.125 29.9455 10 30.4038 10C30.8622 10 31.3101 10.125 31.7476 10.375C32.1851 10.625 32.508 11 32.7163 11.5L37.4038 22.625L49.5288 23.6875C50.1122 23.7708 50.5705 23.9583 50.9038 24.25C51.2372 24.5417 51.4872 24.9167 51.6538 25.375C51.8205 25.8333 51.8518 26.3021 51.7476 26.7812C51.6434 27.2604 51.383 27.6875 50.9663 28.0625L41.7788 36L44.5288 47.8125C44.6538 48.3542 44.6122 48.8438 44.4038 49.2812C44.1955 49.7188 43.9038 50.0833 43.5288 50.375C43.1538 50.6667 42.7163 50.8333 42.2163 50.875C41.7163 50.9167 41.2372 50.7917 40.7788 50.5L30.4038 44.25Z" fill="white"/>
</svg>
