<svg width="60" height="60" viewBox="0 0 60 60" fill="none" xmlns="http://www.w3.org/2000/svg">
<path d="M20.0288 50.5L30.4038 44.25V10C29.9455 10 29.4976 10.125 29.0601 10.375C28.6226 10.625 28.2997 11 28.0913 11.5L23.4038 22.625L11.2788 23.6875C10.6955 23.7708 10.2372 23.9583 9.90385 24.25C9.57051 24.5417 9.32051 24.9167 9.15385 25.375C8.98718 25.8333 8.95593 26.3021 9.0601 26.7812C9.16426 27.2604 9.42468 27.6875 9.84135 28.0625L19.0288 36L16.2788 47.8125C16.1538 48.3542 16.1955 48.8438 16.4038 49.2812C16.6122 49.7188 16.9038 50.0833 17.2788 50.375C17.6538 50.6667 18.0913 50.8333 18.5913 50.875C19.0913 50.9167 19.5705 50.7917 20.0288 50.5Z" fill="white"/>
<path d="M38.2793 43.1875L30.4043 38.375V44.25L40.7793 50.5C41.2376 50.7917 41.7168 50.9167 42.2168 50.875C42.7168 50.8333 43.1543 50.6667 43.5293 50.375C43.9043 50.0833 44.196 49.7188 44.4043 49.2812C44.6126 48.8438 44.6543 48.3542 44.5293 47.8125L41.7793 36L50.9668 28.0625C51.3835 27.6875 51.6439 27.2604 51.748 26.7812C51.8522 26.3021 51.821 25.8333 51.6543 25.375C51.4876 24.9167 51.2376 24.5417 50.9043 24.25C50.571 23.9583 50.1126 23.7708 49.5293 23.6875L37.4043 22.625L32.7168 11.5C32.5085 11 32.1855 10.625 31.748 10.375C31.3105 10.125 30.8626 10 30.4043 10V18.875L34.0293 27.375L43.1543 28.1875L36.2168 34.1875L38.2793 43.1875Z" fill="white"/>
</svg>
