<svg width="60" height="60" viewBox="0 0 60 60" fill="none" xmlns="http://www.w3.org/2000/svg">
<path d="M5 34.625C3.625 34.625 2.44792 34.1354 1.46875 33.1563C0.489583 32.1771 0 31 0 29.625V14.625C0 14.125 0.104167 13.6458 0.3125 13.1875C0.520833 12.7292 0.791667 12.3333 1.125 12L9 4.125C9.375 3.75 9.79167 3.46875 10.25 3.28125C10.7083 3.09375 11.1667 3 11.625 3C12.7083 3 13.6458 3.41667 14.4375 4.25C15.2292 5.08333 15.5208 6.14583 15.3125 7.4375L14.5 12.125H27.5C28.2083 12.125 28.8021 12.3646 29.2812 12.8438C29.7604 13.3229 30 13.9167 30 14.625V17.75C30 18 29.9792 18.2396 29.9375 18.4688C29.8958 18.6979 29.8333 18.9167 29.75 19.125L24.125 32.375C23.8333 33.0833 23.3646 33.6354 22.7188 34.0313C22.0729 34.4271 21.375 34.625 20.625 34.625H5ZM19.875 29.625L25 17.5V17.125H8.375L9.875 10.375L5 15.125V29.625H19.875ZM32.5 47.125C31.7917 47.125 31.1979 46.8854 30.7188 46.4062C30.2396 45.9271 30 45.3333 30 44.625V41.5C30 41.25 30.0208 41.0104 30.0625 40.7812C30.1042 40.5521 30.1667 40.3333 30.25 40.125L35.875 26.875C36.2083 26.1667 36.6875 25.6146 37.3125 25.2188C37.9375 24.8229 38.625 24.625 39.375 24.625H55C56.375 24.625 57.5521 25.1146 58.5312 26.0938C59.5104 27.0729 60 28.25 60 29.625V44.625C60 45.125 59.9062 45.5938 59.7188 46.0312C59.5312 46.4688 59.25 46.875 58.875 47.25L51 55.125C50.625 55.5 50.2083 55.7813 49.75 55.9688C49.2917 56.1563 48.8333 56.25 48.375 56.25C47.2917 56.25 46.3542 55.8333 45.5625 55C44.7708 54.1667 44.4792 53.1042 44.6875 51.8125L45.5 47.125H32.5ZM40.125 29.625L35 41.75V42.125H51.625L50.125 48.875L55 44.125V29.625H40.125Z" fill="white"/>
</svg>
