<svg width="60" height="60" viewBox="0 0 60 60" fill="none" xmlns="http://www.w3.org/2000/svg">
<path d="M30 50C28.625 50 27.4479 49.5104 26.4688 48.5312C25.4896 47.5521 25 46.375 25 45C25 43.625 25.4896 42.4479 26.4688 41.4688C27.4479 40.4896 28.625 40 30 40C31.375 40 32.5521 40.4896 33.5312 41.4688C34.5104 42.4479 35 43.625 35 45C35 46.375 34.5104 47.5521 33.5312 48.5312C32.5521 49.5104 31.375 50 30 50ZM30 35C28.625 35 27.4479 34.5104 26.4688 33.5312C25.4896 32.5521 25 31.375 25 30C25 28.625 25.4896 27.4479 26.4688 26.4688C27.4479 25.4896 28.625 25 30 25C31.375 25 32.5521 25.4896 33.5312 26.4688C34.5104 27.4479 35 28.625 35 30C35 31.375 34.5104 32.5521 33.5312 33.5312C32.5521 34.5104 31.375 35 30 35ZM30 20C28.625 20 27.4479 19.5104 26.4688 18.5312C25.4896 17.5521 25 16.375 25 15C25 13.625 25.4896 12.4479 26.4688 11.4688C27.4479 10.4896 28.625 10 30 10C31.375 10 32.5521 10.4896 33.5312 11.4688C34.5104 12.4479 35 13.625 35 15C35 16.375 34.5104 17.5521 33.5312 18.5312C32.5521 19.5104 31.375 20 30 20Z" fill="white"/>
</svg>
