<svg width="60" height="60" viewBox="0 0 60 60" fill="none" xmlns="http://www.w3.org/2000/svg">
<path d="M12.5 47.5C11.7917 47.5 11.1979 47.2604 10.7188 46.7812C10.2396 46.3021 10 45.7083 10 45C10 44.2917 10.2396 43.6979 10.7188 43.2188C11.1979 42.7396 11.7917 42.5 12.5 42.5H15V25C15 21.5417 16.0417 18.4688 18.125 15.7812C20.2083 13.0938 22.9167 11.3333 26.25 10.5V8.75C26.25 7.70833 26.6146 6.82292 27.3438 6.09375C28.0729 5.36458 28.9583 5 30 5C31.0417 5 31.9271 5.36458 32.6562 6.09375C33.3854 6.82292 33.75 7.70833 33.75 8.75V10.5C37.0833 11.3333 39.7917 13.0938 41.875 15.7812C43.9583 18.4688 45 21.5417 45 25V42.5H47.5C48.2083 42.5 48.8021 42.7396 49.2812 43.2188C49.7604 43.6979 50 44.2917 50 45C50 45.7083 49.7604 46.3021 49.2812 46.7812C48.8021 47.2604 48.2083 47.5 47.5 47.5H12.5ZM30 55C28.625 55 27.4479 54.5104 26.4688 53.5312C25.4896 52.5521 25 51.375 25 50H35C35 51.375 34.5104 52.5521 33.5312 53.5312C32.5521 54.5104 31.375 55 30 55Z" fill="white"/>
</svg>
