<svg width="60" height="60" viewBox="0 0 60 60" fill="none" xmlns="http://www.w3.org/2000/svg">
<path d="M30.25 42.75C33.7083 42.75 36.6562 41.5417 39.0938 39.125C41.5312 36.7083 42.75 33.75 42.75 30.25C42.75 29.9167 42.7396 29.5833 42.7188 29.25C42.6979 28.9167 42.6458 28.5833 42.5625 28.25C42.1042 30.2083 41.0833 31.8229 39.5 33.0938C37.9167 34.3646 36.0625 35 33.9375 35C31.4375 35 29.3333 34.1458 27.625 32.4375C25.9167 30.7292 25.0625 28.625 25.0625 26.125C25.0625 24.2083 25.6042 22.4896 26.6875 20.9688C27.7708 19.4479 29.1875 18.375 30.9375 17.75H30.25C26.75 17.75 23.7917 18.9688 21.375 21.4062C18.9583 23.8438 17.75 26.7917 17.75 30.25C17.75 33.75 18.9583 36.7083 21.375 39.125C23.7917 41.5417 26.75 42.75 30.25 42.75ZM32.8125 29L36.5 26.3125L40.125 29L38.6875 24.75L42.375 22.0625L37.875 22.125L36.5 17.75L35.125 22.125L30.5625 22.0625L34.25 24.75L32.8125 29ZM21.875 50.25H15.25C13.875 50.25 12.6979 49.7604 11.7188 48.7812C10.7396 47.8021 10.25 46.625 10.25 45.25V38.625L5.4375 33.75C4.97917 33.25 4.625 32.6979 4.375 32.0938C4.125 31.4896 4 30.875 4 30.25C4 29.625 4.125 29.0104 4.375 28.4062C4.625 27.8021 4.97917 27.25 5.4375 26.75L10.25 21.875V15.25C10.25 13.875 10.7396 12.6979 11.7188 11.7188C12.6979 10.7396 13.875 10.25 15.25 10.25H21.875L26.75 5.4375C27.25 4.97917 27.8021 4.625 28.4062 4.375C29.0104 4.125 29.625 4 30.25 4C30.875 4 31.4896 4.125 32.0938 4.375C32.6979 4.625 33.25 4.97917 33.75 5.4375L38.625 10.25H45.25C46.625 10.25 47.8021 10.7396 48.7812 11.7188C49.7604 12.6979 50.25 13.875 50.25 15.25V21.875L55.0625 26.75C55.5208 27.25 55.875 27.8021 56.125 28.4062C56.375 29.0104 56.5 29.625 56.5 30.25C56.5 30.875 56.375 31.4896 56.125 32.0938C55.875 32.6979 55.5208 33.25 55.0625 33.75L50.25 38.625V45.25C50.25 46.625 49.7604 47.8021 48.7812 48.7812C47.8021 49.7604 46.625 50.25 45.25 50.25H38.625L33.75 55.0625C33.25 55.5208 32.6979 55.875 32.0938 56.125C31.4896 56.375 30.875 56.5 30.25 56.5C29.625 56.5 29.0104 56.375 28.4062 56.125C27.8021 55.875 27.25 55.5208 26.75 55.0625L21.875 50.25ZM24 45.25L30.25 51.5L36.5 45.25H45.25V36.5L51.5 30.25L45.25 24V15.25H36.5L30.25 9L24 15.25H15.25V24L9 30.25L15.25 36.5V45.25H24Z" fill="white"/>
</svg>
