<svg width="60" height="60" viewBox="0 0 60 60" fill="none" xmlns="http://www.w3.org/2000/svg">
<path d="M44.5 27.5H39.5C38.7917 27.5 38.1979 27.2604 37.7188 26.7812C37.2396 26.3021 37 25.7083 37 25C37 24.2917 37.2396 23.6979 37.7188 23.2188C38.1979 22.7396 38.7917 22.5 39.5 22.5H44.5V17.5C44.5 16.7917 44.7396 16.1979 45.2188 15.7188C45.6979 15.2396 46.2917 15 47 15C47.7083 15 48.3021 15.2396 48.7812 15.7188C49.2604 16.1979 49.5 16.7917 49.5 17.5V22.5H54.5C55.2083 22.5 55.8021 22.7396 56.2812 23.2188C56.7604 23.6979 57 24.2917 57 25C57 25.7083 56.7604 26.3021 56.2812 26.7812C55.8021 27.2604 55.2083 27.5 54.5 27.5H49.5V32.5C49.5 33.2083 49.2604 33.8021 48.7812 34.2812C48.3021 34.7604 47.7083 35 47 35C46.2917 35 45.6979 34.7604 45.2188 34.2812C44.7396 33.8021 44.5 33.2083 44.5 32.5V27.5ZM22 30C19.25 30 16.8958 29.0208 14.9375 27.0625C12.9792 25.1042 12 22.75 12 20C12 17.25 12.9792 14.8958 14.9375 12.9375C16.8958 10.9792 19.25 10 22 10C24.75 10 27.1042 10.9792 29.0625 12.9375C31.0208 14.8958 32 17.25 32 20C32 22.75 31.0208 25.1042 29.0625 27.0625C27.1042 29.0208 24.75 30 22 30ZM2 45V43C2 41.5833 2.36458 40.2812 3.09375 39.0938C3.82292 37.9062 4.79167 37 6 36.375C8.58333 35.0833 11.2083 34.1146 13.875 33.4688C16.5417 32.8229 19.25 32.5 22 32.5C24.75 32.5 27.4583 32.8229 30.125 33.4688C32.7917 34.1146 35.4167 35.0833 38 36.375C39.2083 37 40.1771 37.9062 40.9062 39.0938C41.6354 40.2812 42 41.5833 42 43V45C42 46.375 41.5104 47.5521 40.5312 48.5312C39.5521 49.5104 38.375 50 37 50H7C5.625 50 4.44792 49.5104 3.46875 48.5312C2.48958 47.5521 2 46.375 2 45ZM7 45H37V43C37 42.5417 36.8854 42.125 36.6562 41.75C36.4271 41.375 36.125 41.0833 35.75 40.875C33.5 39.75 31.2292 38.9062 28.9375 38.3438C26.6458 37.7812 24.3333 37.5 22 37.5C19.6667 37.5 17.3542 37.7812 15.0625 38.3438C12.7708 38.9062 10.5 39.75 8.25 40.875C7.875 41.0833 7.57292 41.375 7.34375 41.75C7.11458 42.125 7 42.5417 7 43V45ZM22 25C23.375 25 24.5521 24.5104 25.5312 23.5312C26.5104 22.5521 27 21.375 27 20C27 18.625 26.5104 17.4479 25.5312 16.4688C24.5521 15.4896 23.375 15 22 15C20.625 15 19.4479 15.4896 18.4688 16.4688C17.4896 17.4479 17 18.625 17 20C17 21.375 17.4896 22.5521 18.4688 23.5312C19.4479 24.5104 20.625 25 22 25Z" fill="white"/>
</svg>
