<svg width="60" height="60" viewBox="0 0 60 60" fill="none" xmlns="http://www.w3.org/2000/svg">
<path d="M27.5 29.5V34.5C27.5 35.2083 27.7396 35.8021 28.2188 36.2812C28.6979 36.7604 29.2917 37 30 37C30.7083 37 31.3021 36.7604 31.7812 36.2812C32.2604 35.8021 32.5 35.2083 32.5 34.5V29.5H37.5C38.2083 29.5 38.8021 29.2604 39.2812 28.7812C39.7604 28.3021 40 27.7083 40 27C40 26.2917 39.7604 25.6979 39.2812 25.2188C38.8021 24.7396 38.2083 24.5 37.5 24.5H32.5V19.5C32.5 18.7917 32.2604 18.1979 31.7812 17.7188C31.3021 17.2396 30.7083 17 30 17C29.2917 17 28.6979 17.2396 28.2188 17.7188C27.7396 18.1979 27.5 18.7917 27.5 19.5V24.5H22.5C21.7917 24.5 21.1979 24.7396 20.7188 25.2188C20.2396 25.6979 20 26.2917 20 27C20 27.7083 20.2396 28.3021 20.7188 28.7812C21.1979 29.2604 21.7917 29.5 22.5 29.5H27.5ZM15 47L9.25 52.75C8.45833 53.5417 7.55208 53.7188 6.53125 53.2812C5.51042 52.8438 5 52.0625 5 50.9375V12C5 10.625 5.48958 9.44792 6.46875 8.46875C7.44792 7.48958 8.625 7 10 7H50C51.375 7 52.5521 7.48958 53.5312 8.46875C54.5104 9.44792 55 10.625 55 12V42C55 43.375 54.5104 44.5521 53.5312 45.5312C52.5521 46.5104 51.375 47 50 47H15ZM12.875 42H50V12H10V44.8125L12.875 42Z" fill="white"/>
</svg>
