<svg width="60" height="60" viewBox="0 0 60 60" fill="none" xmlns="http://www.w3.org/2000/svg">
<path d="M44.125 50.25C41.5 50.25 39.2812 49.3438 37.4688 47.5312C35.6562 45.7188 34.75 43.5 34.75 40.875C34.75 38.25 35.6562 36.0312 37.4688 34.2188C39.2812 32.4062 41.5 31.5 44.125 31.5C46.75 31.5 48.9688 32.4062 50.7812 34.2188C52.5938 36.0312 53.5 38.25 53.5 40.875C53.5 43.5 52.5938 45.7188 50.7812 47.5312C48.9688 49.3438 46.75 50.25 44.125 50.25ZM44.125 45.25C45.3333 45.25 46.3646 44.8229 47.2188 43.9688C48.0729 43.1146 48.5 42.0833 48.5 40.875C48.5 39.6667 48.0729 38.6354 47.2188 37.7812C46.3646 36.9271 45.3333 36.5 44.125 36.5C42.9167 36.5 41.8854 36.9271 41.0312 37.7812C40.1771 38.6354 39.75 39.6667 39.75 40.875C39.75 42.0833 40.1771 43.1146 41.0312 43.9688C41.8854 44.8229 42.9167 45.25 44.125 45.25ZM27.25 43.375H12.25C11.5417 43.375 10.9479 43.1354 10.4688 42.6562C9.98958 42.1771 9.75 41.5833 9.75 40.875C9.75 40.1667 9.98958 39.5729 10.4688 39.0938C10.9479 38.6146 11.5417 38.375 12.25 38.375H27.25C27.9583 38.375 28.5521 38.6146 29.0312 39.0938C29.5104 39.5729 29.75 40.1667 29.75 40.875C29.75 41.5833 29.5104 42.1771 29.0312 42.6562C28.5521 43.1354 27.9583 43.375 27.25 43.375ZM15.375 27.75C12.75 27.75 10.5312 26.8438 8.71875 25.0312C6.90625 23.2188 6 21 6 18.375C6 15.75 6.90625 13.5312 8.71875 11.7188C10.5312 9.90625 12.75 9 15.375 9C18 9 20.2188 9.90625 22.0312 11.7188C23.8438 13.5312 24.75 15.75 24.75 18.375C24.75 21 23.8438 23.2188 22.0312 25.0312C20.2188 26.8438 18 27.75 15.375 27.75ZM15.375 22.75C16.5833 22.75 17.6146 22.3229 18.4688 21.4688C19.3229 20.6146 19.75 19.5833 19.75 18.375C19.75 17.1667 19.3229 16.1354 18.4688 15.2812C17.6146 14.4271 16.5833 14 15.375 14C14.1667 14 13.1354 14.4271 12.2812 15.2812C11.4271 16.1354 11 17.1667 11 18.375C11 19.5833 11.4271 20.6146 12.2812 21.4688C13.1354 22.3229 14.1667 22.75 15.375 22.75ZM47.25 20.875H32.25C31.5417 20.875 30.9479 20.6354 30.4688 20.1562C29.9896 19.6771 29.75 19.0833 29.75 18.375C29.75 17.6667 29.9896 17.0729 30.4688 16.5938C30.9479 16.1146 31.5417 15.875 32.25 15.875H47.25C47.9583 15.875 48.5521 16.1146 49.0312 16.5938C49.5104 17.0729 49.75 17.6667 49.75 18.375C49.75 19.0833 49.5104 19.6771 49.0312 20.1562C48.5521 20.6354 47.9583 20.875 47.25 20.875Z" fill="white"/>
</svg>
