<svg width="60" height="60" viewBox="0 0 60 60" fill="none" xmlns="http://www.w3.org/2000/svg">
<path d="M27.0625 31.3393L23.4375 27.7768C22.9792 27.3185 22.4062 27.0893 21.7188 27.0893C21.0312 27.0893 20.4375 27.3393 19.9375 27.8393C19.4792 28.2976 19.25 28.881 19.25 29.5893C19.25 30.2976 19.4792 30.881 19.9375 31.3393L25.3125 36.7143C25.8125 37.2143 26.3958 37.4643 27.0625 37.4643C27.7292 37.4643 28.3125 37.2143 28.8125 36.7143L39.4375 26.0893C39.9375 25.5893 40.1771 25.006 40.1562 24.3393C40.1354 23.6726 39.8958 23.0893 39.4375 22.5893C38.9375 22.0893 38.3438 21.8289 37.6562 21.808C36.9688 21.7872 36.375 22.0268 35.875 22.5268L27.0625 31.3393ZM20.0625 53.9643L16.4375 47.8393L9.5625 46.3393C8.9375 46.2143 8.4375 45.8914 8.0625 45.3705C7.6875 44.8497 7.54167 44.2768 7.625 43.6518L8.3125 36.5893L3.625 31.2143C3.20833 30.756 3 30.2143 3 29.5893C3 28.9643 3.20833 28.4226 3.625 27.9643L8.3125 22.5893L7.625 15.5268C7.54167 14.9018 7.6875 14.3289 8.0625 13.808C8.4375 13.2872 8.9375 12.9643 9.5625 12.8393L16.4375 11.3393L20.0625 5.21429C20.3958 4.67262 20.8542 4.30804 21.4375 4.12054C22.0208 3.93304 22.6042 3.96429 23.1875 4.21429L29.6875 6.96429L36.1875 4.21429C36.7708 3.96429 37.3542 3.93304 37.9375 4.12054C38.5208 4.30804 38.9792 4.67262 39.3125 5.21429L42.9375 11.3393L49.8125 12.8393C50.4375 12.9643 50.9375 13.2872 51.3125 13.808C51.6875 14.3289 51.8333 14.9018 51.75 15.5268L51.0625 22.5893L55.75 27.9643C56.1667 28.4226 56.375 28.9643 56.375 29.5893C56.375 30.2143 56.1667 30.756 55.75 31.2143L51.0625 36.5893L51.75 43.6518C51.8333 44.2768 51.6875 44.8497 51.3125 45.3705C50.9375 45.8914 50.4375 46.2143 49.8125 46.3393L42.9375 47.8393L39.3125 53.9643C38.9792 54.506 38.5208 54.8705 37.9375 55.058C37.3542 55.2455 36.7708 55.2143 36.1875 54.9643L29.6875 52.2143L23.1875 54.9643C22.6042 55.2143 22.0208 55.2455 21.4375 55.058C20.8542 54.8705 20.3958 54.506 20.0625 53.9643ZM23.3125 49.4643L29.6875 46.7143L36.1875 49.4643L39.6875 43.4643L46.5625 41.8393L45.9375 34.8393L50.5625 29.5893L45.9375 24.2143L46.5625 17.2143L39.6875 15.7143L36.0625 9.71429L29.6875 12.4643L23.1875 9.71429L19.6875 15.7143L12.8125 17.2143L13.4375 24.2143L8.8125 29.5893L13.4375 34.8393L12.8125 41.9643L19.6875 43.4643L23.3125 49.4643Z" fill="white"/>
</svg>
