<svg width="60" height="60" viewBox="0 0 60 60" fill="none" xmlns="http://www.w3.org/2000/svg">
<path d="M21.875 47C21.0417 47 20.2604 46.8125 19.5313 46.4375C18.8021 46.0625 18.2083 45.5417 17.75 44.875L8.9375 32.375C8.3125 31.5 8 30.5417 8 29.5C8 28.4583 8.3125 27.5 8.9375 26.625L17.75 14.125C18.2083 13.4583 18.8021 12.9375 19.5313 12.5625C20.2604 12.1875 21.0417 12 21.875 12H46.875C48.25 12 49.4271 12.4896 50.4063 13.4688C51.3854 14.4479 51.875 15.625 51.875 17V42C51.875 43.375 51.3854 44.5521 50.4063 45.5312C49.4271 46.5104 48.25 47 46.875 47H21.875ZM21.875 42H46.875V17H21.875L13 29.5L21.875 42ZM34.375 33L39.125 37.75C39.5833 38.2083 40.1667 38.4375 40.875 38.4375C41.5833 38.4375 42.1667 38.2083 42.625 37.75C43.0833 37.2917 43.3125 36.7083 43.3125 36C43.3125 35.2917 43.0833 34.7083 42.625 34.25L37.875 29.5L42.625 24.75C43.0833 24.2917 43.3125 23.7083 43.3125 23C43.3125 22.2917 43.0833 21.7083 42.625 21.25C42.1667 20.7917 41.5833 20.5625 40.875 20.5625C40.1667 20.5625 39.5833 20.7917 39.125 21.25L34.375 26L29.625 21.25C29.1667 20.7917 28.5833 20.5625 27.875 20.5625C27.1667 20.5625 26.5833 20.7917 26.125 21.25C25.6667 21.7083 25.4375 22.2917 25.4375 23C25.4375 23.7083 25.6667 24.2917 26.125 24.75L30.875 29.5L26.125 34.25C25.6667 34.7083 25.4375 35.2917 25.4375 36C25.4375 36.7083 25.6667 37.2917 26.125 37.75C26.5833 38.2083 27.1667 38.4375 27.875 38.4375C28.5833 38.4375 29.1667 38.2083 29.625 37.75L34.375 33Z" fill="white"/>
</svg>
