<svg width="60" height="60" viewBox="0 0 60 60" fill="none" xmlns="http://www.w3.org/2000/svg">
<path d="M9.5 52C8.79167 52 8.19792 51.7604 7.71875 51.2812C7.23958 50.8021 7 50.2083 7 49.5C7 48.7917 7.23958 48.1979 7.71875 47.7188C8.19792 47.2396 8.79167 47 9.5 47H12V12C12 10.625 12.4896 9.44792 13.4688 8.46875C14.4479 7.48958 15.625 7 17 7H42C43.375 7 44.5521 7.48958 45.5312 8.46875C46.5104 9.44792 47 10.625 47 12V47H49.5C50.2083 47 50.8021 47.2396 51.2812 47.7188C51.7604 48.1979 52 48.7917 52 49.5C52 50.2083 51.7604 50.8021 51.2812 51.2812C50.8021 51.7604 50.2083 52 49.5 52H9.5ZM17 47H42V12H17V47ZM34.5 32C35.2083 32 35.8021 31.7604 36.2812 31.2812C36.7604 30.8021 37 30.2083 37 29.5C37 28.7917 36.7604 28.1979 36.2812 27.7188C35.8021 27.2396 35.2083 27 34.5 27C33.7917 27 33.1979 27.2396 32.7188 27.7188C32.2396 28.1979 32 28.7917 32 29.5C32 30.2083 32.2396 30.8021 32.7188 31.2812C33.1979 31.7604 33.7917 32 34.5 32Z" fill="white"/>
</svg>
