<svg width="60" height="60" viewBox="0 0 60 60" fill="none" xmlns="http://www.w3.org/2000/svg">
<path d="M24.22 37.9375L45.4075 16.75C45.9075 16.25 46.5013 16 47.1888 16C47.8763 16 48.47 16.25 48.97 16.75C49.47 17.25 49.72 17.8438 49.72 18.5312C49.72 19.2188 49.47 19.8125 48.97 20.3125L25.97 43.3125C25.47 43.8125 24.8867 44.0625 24.22 44.0625C23.5533 44.0625 22.97 43.8125 22.47 43.3125L11.72 32.5625C11.22 32.0625 10.9804 31.4688 11.0013 30.7812C11.0221 30.0938 11.2825 29.5 11.7825 29C12.2825 28.5 12.8763 28.25 13.5638 28.25C14.2513 28.25 14.845 28.5 15.345 29L24.22 37.9375Z" fill="white"/>
</svg>
